<svg xmlns="http://www.w3.org/2000/svg" width="1024" height="1536" viewBox="0 0 1024 1536" version="1.1"><path d="M 643.196 274.750 C 641.812 278.383, 636.716 307.802, 635.444 319.500 C 635.145 322.250, 633.571 333.500, 631.947 344.500 C 623.407 402.349, 621.618 435.189, 626.593 442.782 C 629.631 447.419, 636.829 448.057, 639.061 443.886 C 639.676 442.736, 640.597 438.804, 641.108 435.148 C 642.379 426.034, 644.340 420.276, 650.350 408 C 654.424 399.680, 657.041 395.874, 662.959 389.665 C 667.067 385.356, 671.663 381.191, 673.174 380.410 C 675.887 379.007, 675.932 379.035, 676.909 382.745 C 678.403 388.423, 680.591 397.954, 684.082 414 C 689.658 439.633, 696.450 457.572, 703.105 464.250 C 706.397 467.552, 711.790 467.995, 714.345 465.171 C 716.982 462.258, 717.193 463.361, 707.982 432 C 705.317 422.925, 701.018 406.500, 698.430 395.500 C 692.841 371.748, 690.523 365.841, 685.836 363.410 C 679.515 360.130, 670.603 361.697, 663 367.424 C 658.257 370.997, 647 382.091, 647 383.192 C 647 383.680, 650.420 380.725, 654.600 376.626 C 666.837 364.624, 677.188 360.460, 684.887 364.441 C 688.400 366.258, 692.555 375.231, 694.509 385.219 C 695.292 389.224, 697.540 398.800, 699.505 406.500 C 702.752 419.227, 704.465 425.281, 712.771 453.381 L 715.395 462.261 713.087 464.131 C 708.767 467.628, 705.590 466.235, 700.540 458.626 C 695.414 450.903, 686.179 420.885, 682.493 399.959 C 681.406 393.791, 678.890 383.392, 677.845 380.750 C 676.475 377.286, 675.262 377.300, 670.400 380.838 C 656.381 391.038, 644.401 411.168, 640.843 430.500 C 638.429 443.620, 638.085 444.406, 634.585 444.823 C 628.153 445.587, 625 438.869, 625 424.402 C 625 417.289, 628.501 377.839, 630.005 368 C 630.552 364.425, 631.691 356.325, 632.538 350 C 633.384 343.675, 634.467 336.925, 634.945 335 C 635.423 333.075, 636.115 328.125, 636.483 324 C 636.852 319.875, 638.505 308.625, 640.157 299 C 641.809 289.375, 643.296 280.600, 643.460 279.500 C 643.624 278.400, 644.252 276.262, 644.855 274.750 C 645.457 273.238, 645.566 272, 645.097 272 C 644.627 272, 643.771 273.238, 643.196 274.750 M 647 274.121 C 647 274.661, 648.498 275.728, 650.330 276.493 C 656.155 278.927, 656.374 279.659, 655.663 294.286 C 655.310 301.554, 654.333 311.550, 653.492 316.500 C 648.835 343.906, 646.875 360.458, 648.476 358.858 C 649.385 357.948, 656.127 308.411, 657.197 294.768 C 658.038 284.050, 658.004 280.710, 657.041 279.550 C 655.278 277.426, 647 272.950, 647 274.121 M 411.523 280.407 C 407.535 284.636, 396.642 304.679, 377.507 343 C 364.324 369.402, 358.040 381.641, 350.297 396 C 348.322 399.663, 348.240 400.079, 349.855 398.238 C 352.730 394.962, 368.103 365.955, 380.455 340.500 C 386.327 328.400, 391.603 317.636, 392.180 316.580 C 410.353 283.320, 412.026 280.702, 415.799 279.624 C 418.498 278.854, 419.589 279.046, 421.799 280.679 C 427.117 284.610, 428.233 289.085, 429.986 313.500 L 430.703 323.500 430.852 313.822 C 431.032 302.066, 429.461 289.722, 427.185 285.013 C 425.343 281.201, 419.857 277, 416.720 277 C 415.629 277, 413.290 278.533, 411.523 280.407 M 315.681 290.800 C 313.756 292.927, 311.846 298.124, 308.460 310.456 C 306.071 319.153, 303.611 327.773, 298.314 346 C 296.955 350.675, 295.476 355.850, 295.027 357.500 C 291.901 368.984, 288.215 381.923, 281.496 405 C 266.313 457.144, 263.593 468.535, 265.214 473.185 C 267.116 478.639, 274.381 479.874, 277.940 475.349 C 280.201 472.475, 286.744 452.077, 296.016 419 C 298.252 411.025, 302.977 394.375, 306.516 382 C 317.326 344.210, 319.194 337.573, 319.573 335.615 C 320.491 330.866, 321.392 333.629, 322.470 344.500 C 323.230 352.164, 325.663 373.069, 327.592 388.500 C 331.781 422.028, 333.045 427.317, 337.751 431.019 C 344.600 436.406, 350.778 431.096, 361.045 411 C 363.434 406.325, 369.507 395.075, 374.541 386 C 379.576 376.925, 388.549 360.050, 394.482 348.500 C 400.415 336.950, 405.599 327.050, 406.001 326.500 C 408.298 323.360, 411.896 315.868, 410.957 316.181 C 409.559 316.647, 404.440 325.959, 385.770 362 C 377.786 377.412, 374.160 384.145, 369.076 393 C 367.340 396.025, 365.035 400.300, 363.955 402.500 C 357.037 416.590, 351.181 426.110, 347.522 429.217 C 342.585 433.408, 336.201 429.825, 334.159 421.717 C 332.921 416.801, 328.333 385.529, 327.452 376 C 326.903 370.069, 325.145 354.296, 323.411 339.759 C 322.779 334.454, 320.853 330.810, 319.683 332.704 C 318.725 334.255, 315.139 345.606, 312.640 355 C 311.250 360.225, 307.114 374.850, 303.448 387.500 C 299.783 400.150, 295.970 413.650, 294.976 417.500 C 293.981 421.350, 292.483 426.525, 291.646 429 C 290.808 431.475, 288.783 438.225, 287.146 444 C 280.597 467.090, 278.703 472.584, 276.504 474.865 C 274.419 477.029, 273.918 477.128, 270.612 476.037 C 268.151 475.225, 266.806 474.075, 266.393 472.430 C 265.681 469.594, 269.808 450.332, 274.627 434 C 276.493 427.675, 279.127 418.675, 280.480 414 C 281.833 409.325, 284.773 399.200, 287.013 391.500 C 289.254 383.800, 291.252 376.825, 291.454 376 C 292.733 370.782, 296.176 358.525, 296.517 357.973 C 296.742 357.609, 298.054 353.079, 299.433 347.906 C 303.363 333.162, 314.797 294.137, 315.537 292.940 C 316.706 291.049, 320.397 290.243, 323.281 291.248 C 330.003 293.591, 333.335 307.888, 340.933 367 C 343.919 390.227, 345.604 399.729, 346.568 398.765 C 346.804 398.529, 346.307 393.720, 345.464 388.077 C 344.620 382.435, 343.047 370.772, 341.967 362.160 C 340.887 353.547, 339.797 345.375, 339.543 344 C 339.290 342.625, 338.399 337.225, 337.564 332 C 332.686 301.491, 330.474 293.870, 325.642 290.923 C 321.695 288.517, 317.791 288.468, 315.681 290.800 M 577.760 302.383 C 576.493 303.649, 571.990 337.216, 571.975 345.500 C 571.965 350.932, 571.185 351.289, 557.461 352.154 C 541.354 353.170, 539.060 354.761, 544.750 360.969 C 547.933 364.441, 556.381 367, 564.663 367 L 569.906 367 569.460 371.750 C 566.155 406.959, 565.647 427.057, 567.649 443.500 C 569.274 456.851, 570.495 459, 576.456 459 C 582.296 459, 582.766 457.525, 583.467 437 C 583.815 426.825, 584.291 417.375, 584.525 416 C 584.760 414.625, 585.413 405.175, 585.977 395 C 586.541 384.825, 587.261 373.999, 587.577 370.942 L 588.152 365.384 598.826 364.180 C 610.038 362.916, 620.640 360.525, 622.750 358.786 C 624.488 357.353, 624.313 351.892, 622.443 349.223 C 620.561 346.535, 617.226 346.417, 602 348.500 C 596.225 349.290, 590.929 349.951, 590.232 349.968 C 589.228 349.993, 589.103 345.983, 589.631 330.718 C 590.432 307.594, 589.902 304.978, 583.932 302.589 C 579.136 300.670, 579.461 300.681, 577.760 302.383 M 577.644 306.031 C 577.114 308.680, 572.838 347.451, 572.714 350.736 C 572.688 351.415, 571.954 352.170, 571.083 352.413 C 569.453 352.868, 548.871 354.314, 545.750 354.192 C 543.071 354.088, 543.445 359.158, 546.250 360.980 C 549.300 362.961, 557.243 364.980, 563.814 365.444 C 566.791 365.654, 569.590 366.203, 570.034 366.663 C 570.478 367.123, 570.201 376.950, 569.419 388.500 C 567.212 421.100, 567.388 436.408, 570.133 450.739 C 571.036 455.450, 571.458 456.065, 574.319 456.843 C 579.576 458.271, 580.665 456.981, 581.556 448.279 C 581.994 444.001, 582.276 440.173, 582.184 439.773 C 582.014 439.040, 584.472 393.614, 585.635 376 C 586.022 370.136, 586.795 365.886, 587.654 364.896 C 588.615 363.788, 591.594 363.092, 597.273 362.648 C 601.798 362.294, 606.625 361.789, 608 361.527 C 620.517 359.134, 623 357.794, 623 353.431 C 623 349.768, 620.496 348.632, 612.876 348.836 C 605.788 349.027, 593.160 350.545, 589.500 351.647 C 588.400 351.978, 587.834 351.896, 588.241 351.466 C 588.649 351.036, 588.547 350.159, 588.014 349.517 C 587.388 348.763, 587.398 342.526, 588.040 331.925 C 588.975 316.507, 588.702 308.575, 587.161 306.395 C 586.337 305.228, 581.360 303, 579.578 303 C 578.848 303, 577.977 304.364, 577.644 306.031 M 413.411 369.500 C 413.788 398.100, 414.314 423.525, 414.580 426 C 417.845 456.381, 419.795 463.531, 425.301 465.300 C 429.033 466.500, 433.839 464.490, 434.613 461.407 C 434.936 460.120, 434.716 451.290, 434.124 441.784 C 433.532 432.278, 432.770 402.450, 432.430 375.500 C 432.090 348.550, 431.491 325.925, 431.100 325.222 C 430.709 324.519, 430.521 329.244, 430.683 335.722 C 430.845 342.200, 431.186 367.750, 431.442 392.500 C 431.697 417.250, 432.357 442.405, 432.908 448.400 C 433.545 455.339, 433.563 459.948, 432.956 461.083 C 431.762 463.313, 428.592 464.365, 425.446 463.576 C 417.642 461.617, 415.443 438.362, 414.588 348.735 C 414.432 332.365, 413.949 318.640, 413.515 318.235 C 413.081 317.831, 413.034 340.900, 413.411 369.500 M 514.621 356.130 C 511.387 357.798, 508.237 359.565, 507.621 360.056 C 498.059 367.674, 493.633 371.614, 489.285 376.374 C 469.170 398.400, 455.272 426.362, 458.125 439.062 C 459.512 445.233, 461.469 448.411, 466.179 452.142 C 469.947 455.126, 471.102 455.500, 476.545 455.500 C 483.539 455.500, 486.863 453.664, 497.361 444 C 504.934 437.028, 520 420.173, 520 418.672 C 520 418.046, 517.881 420.002, 515.291 423.017 C 505.982 433.854, 492.401 447.254, 487.223 450.709 C 478.755 456.360, 469.821 455.330, 463.646 447.991 C 457.286 440.433, 457.896 429.397, 465.554 413.440 C 472.352 399.277, 484.614 382.024, 494 373.416 C 495.925 371.650, 498.782 369.015, 500.349 367.559 C 501.916 366.103, 506.267 362.890, 510.019 360.418 C 518.397 354.899, 524.712 353.755, 529.647 356.863 C 532.438 358.621, 532.911 359.616, 533.836 365.672 C 534.410 369.428, 535.134 377.900, 535.446 384.500 C 535.758 391.100, 536.453 401.225, 536.990 407 C 541.942 460.216, 541.861 458.392, 539.409 461.101 C 537.098 463.655, 534.402 463.493, 531.537 460.628 C 528.667 457.758, 527.584 454.118, 524.952 438.500 C 523.840 431.900, 522.549 424.475, 522.083 422 C 520.602 414.127, 520.884 422.437, 522.474 433.500 C 525.853 457.011, 528.842 464, 535.516 464 C 540.659 464, 543.375 459.989, 542.626 453.500 C 542.309 450.750, 540.708 431.850, 539.068 411.500 C 535.093 362.155, 535.235 363.497, 533.595 359.573 C 532 355.755, 527.611 352.974, 523.300 353.048 C 521.760 353.075, 517.854 354.461, 514.621 356.130 M 647 362.757 C 647 364.273, 646.603 366.898, 646.117 368.590 C 645.017 372.429, 643.583 384.682, 644.315 383.989 C 644.612 383.708, 645.570 379.208, 646.443 373.989 C 647.316 368.770, 648.257 363.488, 648.534 362.250 C 648.811 361.012, 648.580 360, 648.019 360 C 647.459 360, 647 361.240, 647 362.757 M 514.958 374.702 C 514.110 374.902, 509.813 378.764, 505.409 383.283 C 487.959 401.192, 469.228 435.933, 475.076 439.547 C 476.592 440.484, 481.987 436.408, 491.265 427.318 C 503.091 415.731, 507.238 410.521, 513.008 400 C 517.385 392.018, 518.294 389.461, 518.696 384 C 519.203 377.119, 517.947 373.995, 514.958 374.702 M 506.600 384.146 C 498.713 392.127, 492.858 399.979, 484.287 414.071 C 480.192 420.804, 475 433.689, 475 437.119 C 475 438.937, 475.431 438.816, 479.623 435.812 C 485.127 431.869, 503.815 412.589, 507.868 406.674 C 513.045 399.118, 517 388.709, 517 382.641 C 517 379.604, 516.517 376.820, 515.928 376.455 C 515.338 376.091, 511.140 379.552, 506.600 384.146 M 383.100 478.073 C 369.815 480.711, 352.793 494.572, 338.982 514 C 323.682 535.524, 312.909 557.311, 307.337 578 C 305.099 586.313, 304.773 617.956, 306.853 625 C 311.342 640.195, 321.934 654.777, 331.698 659.203 C 345.087 665.272, 363.434 659.089, 382.466 642.094 C 386.847 638.182, 390.866 634.198, 391.397 633.240 C 391.927 632.283, 389.091 634.425, 385.094 638 C 374.347 647.611, 371.405 649.709, 361.500 654.820 C 352.882 659.267, 352.139 659.465, 344 659.482 C 336.428 659.498, 334.915 659.176, 330.141 656.532 C 321.192 651.575, 314.280 641.833, 309.402 627.302 C 307.154 620.605, 306.793 617.746, 306.657 605.546 C 306.436 585.759, 306.790 583.546, 313.143 565.052 C 322.947 536.507, 345.573 502.826, 363.956 489.412 C 377.605 479.452, 387.066 477.052, 396.202 481.235 C 406.025 485.732, 413.465 498.879, 408.513 502.989 C 406.217 504.895, 402.458 503.399, 398.071 498.834 C 392.972 493.528, 390.083 493.534, 381.096 498.873 C 370.870 504.949, 353.591 524.609, 344.512 540.500 C 331.563 563.165, 326.581 575.840, 323.484 594 C 321.488 605.706, 321.643 614.284, 324.017 623.567 C 328.914 642.715, 338.455 647.263, 356.063 638.844 C 369.186 632.569, 380.114 623.311, 389.705 610.340 C 395.477 602.533, 402.031 589.166, 401.972 585.320 C 401.957 584.319, 400.663 586.650, 399.097 590.500 C 390.744 611.033, 376.405 626.763, 356.782 636.917 C 347.504 641.718, 341.123 642.906, 336.485 640.694 C 324.607 635.030, 320.350 609.902, 326.934 584.320 C 333.774 557.748, 353.132 525.055, 372.817 506.830 C 378.903 501.196, 387.784 496, 391.330 496 C 392.395 496, 395.482 498.250, 398.189 501 C 400.896 503.750, 403.648 505.998, 404.305 505.996 C 404.962 505.994, 406.982 505.089, 408.793 503.985 C 411.833 502.131, 412.036 501.689, 411.431 498.238 C 410.107 490.678, 404.851 483.866, 397.500 480.180 C 392.271 477.557, 388.487 477.004, 383.100 478.073 M 737.500 512.987 C 723.405 514.663, 704.435 524.670, 693.228 536.341 C 676.832 553.416, 679.727 562.756, 706 577.553 C 724.902 588.198, 732 593.902, 732 598.448 C 732 604.036, 713.409 615.386, 696.648 620.030 C 692.784 621.101, 689.241 622.359, 688.774 622.826 C 687.482 624.118, 689.027 631.765, 691.116 634.420 C 694.045 638.144, 698.589 638.411, 708.128 635.418 C 736.356 626.560, 753.061 611.160, 749.877 596.928 C 747.486 586.244, 740.976 579.723, 720 567.004 C 705.013 557.916, 702.452 555.869, 703.302 553.656 C 704.479 550.588, 718.772 539.930, 727.500 535.611 C 732.450 533.162, 739.650 530.428, 743.500 529.535 C 752.410 527.469, 754.902 526.196, 757.103 522.584 C 758.677 520.001, 758.719 519.357, 757.470 516.943 C 755.100 512.360, 750.478 511.444, 737.500 512.987 M 738.500 514.074 C 728.668 515.574, 720.677 518.647, 710.303 524.918 C 689.162 537.699, 680.374 551.849, 687.250 562.038 C 690.412 566.724, 700.681 573.636, 717.311 582.274 C 723.588 585.535, 734 594.977, 734 597.409 C 734 600.517, 731.573 604.019, 727.606 606.637 C 717.812 613.100, 716.191 614.044, 710.500 616.600 C 707.200 618.082, 701.350 620.285, 697.500 621.495 L 690.500 623.695 690.586 627.837 C 690.764 636.501, 696.603 637.937, 711.261 632.921 C 722.125 629.205, 726.280 627.189, 734.127 621.833 C 750.910 610.378, 753.617 595.874, 741.185 584.021 C 734.096 577.261, 731.577 575.336, 725.256 571.845 C 722.090 570.096, 718.825 568.112, 718 567.434 C 717.175 566.757, 714.700 565.212, 712.500 564.001 C 706.281 560.579, 702 557.049, 702 555.343 C 702 551.108, 715.306 539.900, 727.276 534.052 C 731.809 531.838, 739.339 529.084, 744.009 527.934 C 752.744 525.782, 756.983 522.792, 756.995 518.773 C 757.007 514.621, 748.721 512.516, 738.500 514.074 M 480.873 537.526 C 467.611 544.369, 452.980 570.587, 447.567 597.208 C 445.538 607.186, 445.529 623.052, 447.549 629.852 C 450.570 640.026, 460.655 647.129, 469.939 645.622 C 483.956 643.348, 507.611 621.336, 509.669 608.653 C 510.330 604.581, 508.043 600, 505.349 600 C 504.467 600, 499.327 604.240, 493.928 609.422 C 483.252 619.669, 472.516 626.762, 467 627.214 L 463.500 627.500 463.700 615.277 C 463.810 608.555, 464.360 602.195, 464.922 601.145 C 465.590 599.898, 467.528 598.998, 470.510 598.551 C 481.775 596.862, 491.067 592.063, 499.601 583.529 C 508.762 574.369, 512.121 564.374, 509.615 553.740 C 507.014 542.703, 500.580 536.453, 490.954 535.614 C 486.547 535.229, 484.612 535.596, 480.873 537.526 M 632.313 538.074 C 630.011 539.214, 625.302 543.039, 621.850 546.575 C 615.138 553.451, 599.532 574.691, 595.960 581.814 C 594.769 584.187, 593.606 585.939, 593.374 585.707 C 593.142 585.475, 593.352 578.809, 593.840 570.893 C 594.800 555.333, 594.282 552.289, 590.033 548.500 C 588.407 547.050, 586.376 546.500, 582.645 546.500 C 575.646 546.500, 571.160 549.482, 565.637 557.808 C 560.403 565.698, 550.990 582.824, 551.022 584.400 C 551.034 585.005, 552.439 583.025, 554.143 580 C 565.452 559.933, 570.544 552.430, 574.442 550.092 C 579.523 547.043, 582.656 546.754, 587.479 548.888 C 591.254 550.558, 591.978 551.367, 592.583 554.592 C 593.246 558.126, 592.528 578.924, 591.579 583.671 C 591.314 585, 591.734 586.068, 592.663 586.424 C 594.791 587.241, 595.812 586.385, 597.483 582.387 C 600.051 576.240, 616.635 553.710, 623.674 546.804 C 630.823 539.791, 634.010 538, 639.343 538 C 646.724 538, 650.011 543.833, 649.978 556.872 C 649.966 561.617, 649.301 576.975, 648.500 591 C 646.746 621.711, 646.741 622, 648 622 C 648.594 622, 649.002 618.247, 649.004 612.750 C 649.006 607.663, 649.680 593.039, 650.501 580.254 C 652.606 547.479, 651.488 540.835, 643.282 537.362 C 638.948 535.528, 637.232 535.639, 632.313 538.074 M 480 539.584 C 468.508 546.120, 457.480 565.876, 449.627 594 C 447.305 602.312, 446.639 621.281, 448.435 627.905 C 451.233 638.223, 460.140 645.566, 468.428 644.388 C 476.088 643.298, 484.997 638.096, 493.814 629.565 C 506.258 617.524, 510.717 608.034, 506.556 602.441 C 505.180 600.592, 504.744 600.859, 497.306 608.119 C 487.400 617.786, 479.847 623.662, 473.500 626.637 C 462.510 631.788, 460.370 629.108, 461.980 612.211 C 462.518 606.566, 463.423 601.079, 463.991 600.017 C 464.597 598.885, 466.570 597.821, 468.762 597.445 C 486.144 594.462, 499.317 585.666, 505.938 572.622 C 508.989 566.611, 509.231 565.477, 508.784 559.276 C 508.168 550.721, 504.485 543.081, 499.270 539.538 C 494.074 536.006, 486.256 536.025, 480 539.584 M 539.172 541.250 C 537.177 545.101, 530.468 596.884, 529.354 617.029 C 528.735 628.218, 528.787 628.637, 531.108 631.205 C 532.424 632.660, 534.920 634.136, 536.655 634.484 C 540.758 635.307, 543.930 632.027, 547.740 623.020 C 551.652 613.772, 562.601 592.392, 569.937 579.674 C 573.372 573.720, 575.974 568.641, 575.720 568.386 C 574.580 567.247, 563.293 587.335, 552.898 609 C 541.915 631.890, 541.853 631.999, 539.444 632.603 C 535.995 633.469, 531.755 630.961, 530.814 627.500 C 529.813 623.815, 531.033 609.062, 534.991 577 C 539.621 539.490, 539.881 538.670, 546.309 541.356 C 551.617 543.574, 551.783 546.502, 548.460 579.500 C 548.109 582.991, 548.232 583.884, 548.869 582.458 C 550.234 579.403, 552.340 551.754, 551.589 546.748 C 551.085 543.381, 550.285 542.009, 548.064 540.697 C 544.031 538.315, 540.582 538.529, 539.172 541.250 M 482.870 555.164 C 476.818 562.806, 470.750 573.837, 469.483 579.500 C 469.114 581.150, 471.061 578, 473.810 572.500 C 480.008 560.096, 486.225 552, 489.550 552 C 494.152 552, 495.453 559.232, 492.050 565.902 C 489.708 570.492, 481.329 578.235, 475.050 581.612 C 472.548 582.957, 471.625 583.774, 473 583.425 C 480.755 581.462, 492.635 570.501, 494.784 563.325 C 496.070 559.036, 495.061 553.291, 492.768 551.836 C 489.619 549.837, 486.171 550.997, 482.870 555.164 M 632.390 558.439 C 626.668 562.448, 610.271 586.359, 597.376 609.500 C 589.113 624.330, 588.546 625, 584.274 625 C 580.666 625, 579.112 623.946, 577.057 620.106 C 575.783 617.727, 576.251 594.556, 577.887 578.962 C 578.264 575.367, 578.299 571.317, 577.965 569.962 C 577.223 566.955, 576.429 574.613, 574.965 598.883 C 573.931 616.032, 573.947 616.329, 576.208 620.883 C 579.992 628.505, 586.711 629.105, 591.481 622.247 C 592.915 620.186, 597.271 612.875, 601.162 606 C 610.956 588.695, 621.524 572.766, 628.882 564.217 C 632.298 560.248, 634.948 557, 634.769 557 C 634.591 557, 633.520 557.648, 632.390 558.439 M 634.402 561.533 C 634.053 562.927, 633.707 576.314, 633.633 591.283 C 633.483 621.996, 633.702 623.134, 640.397 626.402 C 644.671 628.489, 647.228 627.799, 647.840 624.393 C 648.168 622.565, 648.132 622.563, 646.791 624.336 C 644.630 627.191, 640.014 626.168, 637.384 622.253 C 633.682 616.740, 633.435 609.482, 635.581 569.250 C 636.115 559.247, 635.684 556.427, 634.402 561.533 M 419 562.894 C 394.620 569.610, 382.611 572.254, 370.778 573.512 C 362.899 574.350, 361.325 575.654, 362.643 580.252 C 363.719 584.002, 368.590 587.645, 373.849 588.632 C 378.206 589.449, 392.731 586.659, 398.500 583.898 C 400.780 582.806, 401.425 582.231, 400 582.560 C 398.625 582.878, 393.900 583.995, 389.500 585.043 C 379.250 587.485, 373.870 587.484, 369.083 585.043 C 365.223 583.073, 364 581.381, 364 578.009 C 364 576.510, 365.307 575.977, 371.250 575.050 C 386.035 572.744, 399.777 569.867, 409.500 567.042 C 427.604 561.783, 432.331 561.990, 433.225 568.080 C 433.806 572.036, 431.459 574.395, 425.433 575.913 C 420.725 577.098, 418.262 579.777, 417.401 584.647 C 416.869 587.653, 415.095 595.838, 412.447 607.500 C 411.572 611.350, 410.675 615.400, 410.453 616.500 C 410.231 617.600, 409.603 620.525, 409.059 623 C 408.514 625.475, 407.576 631.100, 406.974 635.500 C 403.104 663.764, 400.687 669.291, 393.942 665.306 C 389.550 662.713, 389.190 655.109, 392.576 636.500 C 392.953 634.429, 392.836 633.965, 392.201 635 C 390.764 637.340, 388.898 648.419, 388.873 654.760 C 388.842 662.349, 390.058 665.178, 394.343 667.486 C 397.854 669.376, 397.928 669.376, 400.065 667.450 C 401.255 666.378, 402.654 664.388, 403.174 663.030 C 404.487 659.593, 406.865 647.373, 408.530 635.500 C 409.302 630, 411.070 620.325, 412.461 614 C 413.851 607.675, 415.414 600.475, 415.934 598 C 418.257 586.946, 419.930 580.789, 420.944 579.568 C 421.545 578.843, 424.023 577.694, 426.449 577.014 C 428.875 576.335, 431.791 574.911, 432.930 573.851 C 437.156 569.914, 434.467 562.452, 428.500 561.555 C 426.850 561.307, 422.575 561.910, 419 562.894 M 653 692.542 C 647.225 693.280, 640.700 694.378, 638.500 694.982 C 609.940 702.823, 583.947 715.091, 563.929 730.175 C 555.055 736.861, 539.996 752.578, 533.268 762.176 C 528.145 769.484, 523.587 778, 524.798 778 C 525.255 778, 526.430 776.321, 527.409 774.269 C 533.110 762.313, 553.216 739.706, 567.475 729.217 C 587.890 714.201, 621.381 699.595, 644.954 695.429 C 682.011 688.879, 703.135 693.154, 720.940 710.809 C 727.118 716.934, 729.634 720.384, 733.300 727.755 C 745.405 752.094, 750.635 780.935, 748.122 809.500 C 747.541 816.100, 746.884 822.400, 746.662 823.500 C 746.439 824.600, 745.957 827.750, 745.591 830.500 C 745.224 833.250, 744.697 836.661, 744.420 838.080 C 743.994 840.261, 745.092 841.805, 751.533 848.080 C 755.722 852.161, 765.753 862.675, 773.825 871.444 C 781.896 880.212, 792.212 890.981, 796.750 895.374 C 802.409 900.852, 805 904.088, 805 905.676 C 805 907.138, 802.550 910.661, 798.354 915.234 C 786.171 928.509, 741.538 982.211, 728.733 999 C 722.533 1007.128, 721.286 1008.728, 710.009 1023.010 C 701.551 1033.722, 697.199 1039.404, 695 1042.607 C 694.175 1043.808, 687.200 1052.883, 679.500 1062.775 C 667.503 1078.185, 659.770 1088.712, 641.224 1114.878 C 639.422 1117.420, 631.432 1129.400, 623.469 1141.500 C 615.506 1153.600, 608.649 1163.950, 608.231 1164.500 C 607.814 1165.050, 604.103 1170.826, 599.986 1177.335 C 579.904 1209.085, 579.486 1209.706, 565.218 1228.969 C 541.357 1261.181, 526.810 1279, 524.373 1279 C 523.618 1279, 523 1279.450, 523 1280 C 523 1283.381, 530.107 1277.353, 537.703 1267.529 C 540.692 1263.663, 550.922 1250.150, 560.435 1237.500 C 580.269 1211.128, 584.721 1204.598, 609.530 1165.500 C 634.617 1125.963, 662.590 1086.189, 688.461 1053.270 C 692.882 1047.644, 698.075 1040.894, 700 1038.272 C 701.925 1035.649, 706.014 1030.353, 709.087 1026.502 C 712.160 1022.651, 721.235 1011.102, 729.254 1000.838 C 750.124 974.124, 790.016 926.083, 800.116 915.500 C 805.474 909.886, 807.479 905.752, 806.088 903.185 C 805.586 902.258, 801.873 898.285, 797.838 894.355 C 793.802 890.425, 785.810 882.100, 780.077 875.855 C 774.345 869.610, 764.271 859.100, 757.692 852.500 L 745.730 840.500 748.002 824.115 C 749.942 810.122, 750.195 805.011, 749.736 789.115 C 749.260 772.633, 748.852 769.177, 746.168 758.949 C 738.261 728.811, 728.156 712.074, 711 700.698 C 701.246 694.230, 692.591 691.891, 677.045 691.522 C 669.486 691.342, 658.860 691.793, 653 692.542 M 660.429 708.115 C 635.628 710.723, 602.885 723.719, 578.236 740.737 C 564.886 749.955, 545.297 771.997, 535.789 788.500 C 533.571 792.350, 531.035 796.625, 530.154 798 C 524.221 807.255, 514.513 834.753, 510.291 854.256 C 508.036 864.676, 507.631 869.032, 507.571 883.500 C 507.509 898.426, 507.782 901.474, 509.812 908.486 C 511.758 915.208, 516.903 926.213, 518.937 928 C 519.250 928.275, 520.782 930.383, 522.343 932.684 C 524.945 936.521, 531.764 943.396, 539.730 950.213 C 552.484 961.128, 579.913 968.343, 601.471 966.452 C 614.302 965.326, 629.872 960.355, 643.166 953.139 C 649.581 949.656, 655.663 946.063, 656.681 945.153 C 657.699 944.244, 661.206 941.250, 664.474 938.500 C 677.225 927.772, 684.598 919.425, 697.626 900.972 C 704.222 891.630, 718 866.288, 718 863.499 C 718 863.116, 718.612 861.384, 719.359 859.651 C 722.424 852.549, 723.044 850.567, 725.905 838.731 C 733.042 809.213, 732.444 770.933, 724.464 746.485 C 720.378 733.970, 716.158 726.018, 710.398 719.979 C 699.416 708.465, 686.426 705.381, 660.429 708.115 M 661 709.590 C 648.622 711.060, 639.815 713.051, 627.500 717.166 C 609.609 723.144, 583.089 737.789, 570.171 748.825 C 555.223 761.596, 538.700 783.702, 528.480 804.604 C 515.722 830.696, 506.905 868.257, 508.410 890.102 C 509.903 911.785, 517.619 927.908, 533.813 943.185 C 550.476 958.904, 570.587 965.730, 597.315 964.739 C 613.371 964.143, 623.287 961.476, 639.310 953.444 C 660.724 942.708, 678.077 926.673, 696.025 901.033 C 707.704 884.351, 718.847 860.470, 723.339 842.500 C 727.684 825.115, 728.982 814.546, 729.169 795 C 729.373 773.601, 727.740 761.454, 722.515 745.500 C 712.365 714.511, 696.678 705.354, 661 709.590 M 442.500 709.606 C 429.391 712.512, 424.940 714.013, 415.500 718.713 C 403.655 724.609, 394.851 730.635, 383 740.957 C 349.950 769.744, 330.486 791.281, 312.469 819 C 301.922 835.226, 293.584 845.660, 268.517 874 C 235.403 911.436, 217.524 933.314, 216.348 937.837 C 215.448 941.296, 218.476 944.650, 226.765 949.376 C 232.604 952.704, 235.976 955.751, 244.250 965.172 C 249.887 971.591, 263.956 987.566, 275.513 1000.672 C 287.070 1013.777, 300.310 1029.225, 304.937 1035 C 309.563 1040.775, 317.006 1049.775, 321.476 1055 C 332.845 1068.287, 345.040 1082.792, 348 1086.549 C 349.375 1088.295, 355 1095.033, 360.500 1101.524 C 366 1108.015, 373.200 1116.562, 376.500 1120.516 C 379.800 1124.471, 387.915 1134.185, 394.534 1142.103 C 410.399 1161.084, 414.014 1165.610, 433.578 1191 C 460.003 1225.293, 463.259 1229.242, 485.233 1253.653 C 495.110 1264.625, 506.018 1274.078, 514.099 1278.668 C 518.356 1281.086, 522.625 1281.820, 521.459 1279.933 C 521.096 1279.347, 520.544 1279.122, 520.232 1279.434 C 519.270 1280.397, 508.841 1274.032, 502 1268.307 C 490.580 1258.749, 465.089 1229.477, 441.564 1198.908 C 417.158 1167.193, 386.942 1129.573, 383.006 1126 C 382.703 1125.725, 375.715 1117.422, 367.478 1107.550 C 353.446 1090.733, 334.224 1067.787, 318.812 1049.455 C 315.133 1045.080, 307.101 1035.425, 300.961 1028 C 294.822 1020.575, 280.014 1003.475, 268.054 990 C 256.094 976.525, 243.778 962.511, 240.683 958.857 C 236.712 954.169, 233.063 951.125, 228.279 948.509 C 224.550 946.470, 220.713 944.102, 219.750 943.246 C 217.064 940.857, 217.624 936.693, 221.250 932.098 C 232.840 917.409, 248.093 899.358, 268.993 875.594 C 296.145 844.721, 301.902 837.583, 312.219 822 C 317.498 814.025, 323.999 804.550, 326.664 800.945 C 341.016 781.532, 375.827 747.299, 398 730.793 C 410.103 721.784, 429.419 713.040, 441 711.330 C 442.925 711.045, 453.725 710.766, 465 710.708 L 485.500 710.604 492 713.941 C 499.919 718.007, 511.682 729.433, 515.224 736.500 C 518.615 743.266, 521.216 755.696, 521.168 764.910 C 521.146 769.084, 521.540 774.075, 522.042 776 C 523.427 781.308, 522.390 754.688, 520.951 748 C 520.301 744.975, 518.588 740.025, 517.146 737 C 513.594 729.548, 500.385 716.419, 492.475 712.477 L 486.500 709.500 465.500 709.331 C 453.950 709.238, 443.600 709.362, 442.500 709.606 M 453 724.768 C 451.075 724.916, 445.694 725.978, 441.042 727.127 C 425.870 730.876, 412.144 738.947, 389.500 757.431 C 382.024 763.534, 360 784.794, 360 785.908 C 360 786.275, 357.717 788.808, 354.926 791.538 C 347.243 799.052, 333.532 816.799, 325.817 829.214 C 309.985 854.690, 304.359 871.801, 303.366 897.496 C 302.567 918.163, 304.361 929.009, 310.568 941.026 C 316.170 951.873, 322.340 959.123, 331.808 965.984 C 343.575 974.511, 349.104 976.290, 364 976.345 C 378.804 976.400, 387.687 974.341, 400.930 967.784 C 417.922 959.372, 441.265 938.663, 457.047 918 C 462.632 910.688, 478.495 884.978, 483.330 875.402 C 487.026 868.082, 493.398 850.943, 497.154 838.222 C 502.523 820.040, 504.650 808.591, 506.022 790.500 C 508.216 761.578, 504.824 743.865, 495.140 733.668 C 489.612 727.847, 487.293 727.002, 476.800 726.984 C 471.685 726.976, 465.025 726.413, 462 725.734 C 458.975 725.055, 454.925 724.621, 453 724.768 M 441 728.384 C 420.054 733.792, 393.599 752.805, 364.628 783.272 C 340.729 808.406, 328.838 824.581, 317.413 847.500 C 305.430 871.538, 301.570 899.088, 306.554 925 C 310.764 946.891, 329.048 967.454, 350 973.862 C 356.680 975.905, 377.367 974.842, 386.500 971.986 C 403.085 966.801, 418.420 956.692, 436.343 939.126 C 449.812 925.926, 459.104 913.829, 470.617 894.500 C 485.592 869.359, 492.156 853.238, 499.933 822.500 C 504.349 805.047, 506.287 774.671, 503.996 758.831 C 502.143 746.022, 497.821 736.854, 491.230 731.750 C 487.992 729.243, 486.919 728.999, 479.089 728.984 C 474.365 728.976, 467.800 728.317, 464.500 727.520 C 456.445 725.575, 451.122 725.771, 441 728.384 M 575.310 835.946 C 554.648 845.327, 545.966 879.252, 560.658 893.197 C 568.781 900.906, 577.823 900.672, 586.848 892.518 C 594.186 885.889, 598.633 875.545, 599.632 862.783 C 600.597 850.464, 595.648 839.716, 587.197 835.776 C 582.475 833.575, 580.470 833.603, 575.310 835.946 M 573.500 838.011 C 567.948 841.461, 562.950 847.453, 559.338 854.986 C 551.887 870.527, 554.185 887.834, 564.607 894.662 C 574.635 901.233, 586.293 895.550, 593.491 880.585 C 597.042 873.204, 599.157 861.874, 598.250 855.093 C 597.284 847.870, 592.305 839.686, 587.316 837.122 C 584.044 835.441, 576.894 835.901, 573.500 838.011 M 391.148 848.276 C 389.305 848.865, 384.693 852.354, 380.900 856.029 C 375.633 861.132, 373.178 864.498, 370.504 870.286 C 361.436 889.911, 362.601 904.011, 373.671 908.636 C 381.217 911.789, 388.765 909.214, 398.171 900.280 C 405.533 893.287, 408.227 889.210, 410.937 880.955 C 417.799 860.051, 407.503 843.046, 391.148 848.276 M 389 851.127 C 373.728 860.376, 362.121 886.575, 367.042 900.690 C 368.324 904.367, 374.788 908.228, 379.870 908.351 C 387.034 908.524, 397.932 900.773, 404.968 890.500 C 413.864 877.510, 413.603 856.626, 404.472 850.983 C 400.186 848.334, 393.509 848.396, 389 851.127 M 738.467 860.765 C 737.898 861.169, 736.129 864.650, 734.535 868.500 C 721.735 899.418, 688.968 941.495, 665.402 957.279 C 657.280 962.719, 638.552 972.447, 633.146 974.033 C 612.079 980.217, 602.653 981.328, 584.084 979.817 C 562.282 978.042, 543.729 971.105, 528.886 959.176 C 507.134 941.696, 497.441 925.473, 492.035 897.500 C 491.108 892.703, 491.086 892.793, 491.473 899.715 C 492.297 914.409, 501.184 933.207, 513.889 947.127 C 521.733 955.721, 535.954 966.887, 543.761 970.580 C 569.225 982.629, 599.872 985.105, 627 977.307 C 639.589 973.689, 658.174 964.261, 669.601 955.697 C 694.501 937.035, 722.198 900.914, 735.502 869.750 C 737.556 864.938, 739.550 861, 739.931 861 C 740.704 861, 753.577 874.259, 770.883 892.877 C 781.102 903.872, 782.157 905.346, 781.205 907.311 C 780.621 908.515, 773.517 917.150, 765.416 926.500 C 753.193 940.609, 738.402 958.517, 725.036 975.390 C 723.681 977.100, 718.281 983.864, 713.036 990.419 C 654.435 1063.664, 637.601 1087.123, 572.890 1185.717 C 557.041 1209.865, 525.840 1254.234, 521.180 1259.250 C 519.775 1260.763, 518.109 1262, 517.477 1262 C 516.011 1262, 505.397 1250.843, 497.024 1240.500 C 464.092 1199.821, 451.522 1184.068, 439.571 1168.500 C 427.107 1152.263, 415.345 1137.364, 408 1128.505 C 384.443 1100.094, 369.627 1082.315, 362.994 1074.500 C 358.793 1069.550, 349.672 1058.750, 342.724 1050.500 C 324.147 1028.440, 284.501 983.009, 273.369 971.024 C 270.546 967.986, 264.796 961.450, 260.589 956.500 C 253.243 947.855, 243.787 939, 241.901 939 C 240.218 939, 240.992 936.333, 243.750 932.627 C 248.186 926.665, 276.459 892.315, 283.233 884.656 L 287.517 879.813 287.170 898.156 C 286.718 922.073, 288.490 931.712, 296.135 946.903 C 300.621 955.817, 302.740 958.693, 310.935 966.989 C 325.547 981.781, 339.670 988.988, 357.120 990.556 C 371.629 991.860, 394.804 987.122, 409.622 979.822 C 424.862 972.314, 444.263 957.159, 456.845 942.934 C 469.876 928.203, 484.680 905.827, 488.432 895.193 C 490.994 887.933, 488.666 890.653, 484.525 899.759 C 473.946 923.026, 452.897 948.244, 429.463 965.728 C 408.140 981.636, 390.670 987.934, 366 988.604 C 353.550 988.943, 350.581 988.714, 345 986.984 C 323.771 980.406, 304.326 962.827, 295.035 941.815 C 290.614 931.815, 288.771 921.365, 288.632 905.500 C 288.559 897.250, 288.846 888.189, 289.269 885.364 C 289.931 880.946, 289.792 880.134, 288.269 879.546 C 286.963 879.042, 285.364 880.124, 282.156 883.682 C 274.778 891.865, 251.909 919.709, 242.974 931.388 C 240.238 934.964, 238.948 940, 240.768 940 C 242.451 940, 253.187 949.924, 259.159 957 C 262.640 961.125, 271.341 971.047, 278.494 979.048 C 292.361 994.559, 302.967 1006.613, 321.127 1027.500 C 327.343 1034.650, 332.670 1040.725, 332.964 1041 C 333.666 1041.655, 345.807 1056.098, 359.865 1073 C 376.486 1092.985, 377.953 1094.734, 384.540 1102.437 C 396.704 1116.660, 426.118 1153.340, 442 1174.089 C 449.447 1183.819, 463.288 1201.383, 463.995 1202 C 464.309 1202.275, 468.340 1207.225, 472.951 1213 C 501.100 1248.254, 515.056 1264, 518.156 1264 C 519.637 1264, 523.389 1259.448, 532.782 1246.257 C 537.577 1239.523, 542.736 1232.323, 544.247 1230.257 C 546.877 1226.660, 551.985 1219.337, 563.292 1202.953 C 566.156 1198.803, 573.169 1188.228, 578.875 1179.453 C 584.582 1170.679, 590.095 1162.281, 591.125 1160.790 C 592.156 1159.300, 593 1157.823, 593 1157.507 C 593 1157.192, 596.263 1152.164, 600.250 1146.336 C 604.237 1140.507, 609.750 1132.271, 612.500 1128.035 C 631.007 1099.522, 674.286 1040.988, 706.251 1001.237 C 716.308 988.732, 725.428 977.312, 726.518 975.860 C 732.975 967.259, 754.447 941.295, 767.252 926.604 C 775.451 917.197, 782.633 908.516, 783.212 907.313 C 784.156 905.350, 783.044 903.815, 772.382 892.362 C 752.427 870.927, 741.677 859.999, 740.563 860.015 C 739.978 860.024, 739.035 860.361, 738.467 860.765 M 538 1002.485 C 534.044 1003.761, 533.138 1004.632, 530.507 1009.698 C 523.896 1022.425, 508.136 1044.263, 496.579 1056.712 C 485.334 1068.824, 469.029 1077.871, 461.500 1076.176 C 454.394 1074.575, 448.876 1068.870, 445.370 1059.500 C 443.767 1055.214, 443.493 1051.483, 443.450 1033.380 C 443.409 1015.586, 443.144 1011.869, 441.768 1009.769 C 439.768 1006.716, 434.748 1005.533, 431.133 1007.263 C 427.774 1008.870, 426.465 1013.808, 424.445 1032.500 C 421.801 1056.958, 425.855 1071.069, 439.350 1084.376 C 446.120 1091.053, 453.132 1094.666, 462.246 1096.176 C 467.946 1097.121, 469.227 1096.974, 476.504 1094.541 C 496.853 1087.738, 515.347 1070.682, 536.810 1038.923 C 549.601 1019.997, 554.914 1007.569, 552.108 1003.141 C 550.855 1001.163, 543.205 1000.808, 538 1002.485 M 538 1003.892 C 536.625 1004.272, 534.681 1005.915, 533.681 1007.542 C 512.819 1041.466, 497.046 1060.974, 482.865 1070.389 C 477.089 1074.224, 467.592 1078, 463.721 1078 C 459.140 1078, 451.645 1073.264, 448.327 1068.273 C 442.230 1059.102, 441.626 1055.793, 441.854 1032.780 C 442.049 1013.145, 441.953 1011.953, 440.030 1010.030 C 438.789 1008.789, 436.683 1008, 434.614 1008 C 430.171 1008, 428.734 1011.046, 426.568 1025.060 C 422.565 1050.963, 425.570 1066.063, 437.613 1080.548 C 442.887 1086.892, 448.407 1090.743, 455.651 1093.133 C 466.224 1096.621, 476.439 1094.849, 489.067 1087.337 C 497.933 1082.064, 513.748 1067.747, 521.377 1058.088 C 534.604 1041.343, 552 1012.453, 552 1007.233 C 552 1006.225, 551.460 1004.860, 550.800 1004.200 C 549.521 1002.921, 542.147 1002.743, 538 1003.892" stroke="none" fill="#050404" fill-rule="evenodd"/><path d="M 644.855 274.750 C 644.252 276.262, 643.624 278.400, 643.460 279.500 C 643.296 280.600, 641.809 289.375, 640.157 299 C 638.505 308.625, 636.852 319.875, 636.483 324 C 636.115 328.125, 635.423 333.075, 634.945 335 C 634.467 336.925, 633.384 343.675, 632.538 350 C 631.691 356.325, 630.552 364.425, 630.005 368 C 628.489 377.918, 625 417.315, 625 424.520 C 625 433.320, 626.752 441.145, 629.193 443.250 C 631.256 445.030, 636.054 445.613, 637.417 444.250 C 637.829 443.838, 638.686 443.500, 639.320 443.500 C 639.954 443.500, 640.587 442.600, 640.728 441.500 L 640.983 439.500 639.985 441.500 C 639.267 442.940, 639.158 441.823, 639.596 437.513 C 641.379 419.940, 649.850 401.410, 661.883 388.761 C 665.943 384.492, 669.734 381, 670.307 381 C 670.880 381, 670.258 382.238, 668.924 383.750 L 666.500 386.500 669.219 384.105 C 670.715 382.787, 671.715 381.347, 671.441 380.905 C 670.937 380.089, 674.081 378, 675.813 378 C 677.405 378, 680.302 387.523, 682.493 399.959 C 686.179 420.885, 695.414 450.903, 700.540 458.626 C 705.590 466.235, 708.767 467.628, 713.087 464.131 L 715.395 462.261 712.771 453.381 C 704.465 425.281, 702.752 419.227, 699.505 406.500 C 697.540 398.800, 695.292 389.224, 694.509 385.219 C 692.555 375.231, 688.400 366.258, 684.887 364.441 C 680.342 362.091, 674.162 362.671, 668.090 366.018 C 661.804 369.483, 661.273 369.615, 663.128 367.250 C 664.376 365.659, 664.339 365.626, 662.726 366.893 C 661.750 367.658, 661.195 368.529, 661.493 368.827 C 662.177 369.510, 655.955 376, 654.617 376 C 654.072 376, 654.947 374.538, 656.561 372.750 L 659.496 369.500 655.797 372.898 C 653.763 374.767, 652.189 376.792, 652.299 377.398 C 652.410 378.004, 651.991 378.405, 651.369 378.290 C 650.747 378.174, 649.397 379.074, 648.369 380.290 L 646.500 382.500 648.750 380.595 C 651.559 378.217, 651.750 380.012, 648.957 382.539 C 646.956 384.350, 646.901 384.337, 646.264 381.944 L 645.613 379.500 644.842 382 C 643.781 385.440, 645.020 372.418, 646.117 368.590 C 646.603 366.898, 647 364.273, 647 362.757 C 647 361.240, 647.360 360, 647.799 360 C 648.239 360, 648.424 358.510, 648.212 356.689 C 647.889 353.924, 649.550 339.764, 651.637 327.500 C 651.917 325.850, 652.794 320.675, 653.584 316 C 654.374 311.325, 655.310 301.554, 655.663 294.286 C 656.374 279.659, 656.155 278.927, 650.330 276.493 C 648.498 275.728, 647 274.574, 647 273.929 C 647 273.106, 647.524 273.166, 648.750 274.128 C 650.336 275.371, 650.371 275.336, 649.128 273.750 C 647.211 271.306, 646.126 271.560, 644.855 274.750 M 414.297 280.014 C 412.158 280.875, 410.660 283.270, 397.875 306.274 C 394.582 312.200, 391.468 316.789, 390.955 316.472 C 390.442 316.155, 390.285 316.579, 390.605 317.413 C 391.662 320.167, 352.849 396.643, 350.980 395.488 C 350.517 395.202, 349.813 395.494, 349.415 396.138 C 348.963 396.869, 349.124 397.041, 349.845 396.595 C 351.648 395.482, 351.200 397.593, 349.308 399.128 C 347.864 400.299, 347.741 400.292, 348.472 399.080 C 349.111 398.020, 348.913 397.819, 347.692 398.288 C 345.373 399.178, 344.623 395.708, 340.933 367 C 333.335 307.888, 330.003 293.591, 323.281 291.248 C 320.397 290.243, 316.706 291.049, 315.537 292.940 C 314.797 294.137, 303.363 333.162, 299.433 347.906 C 298.054 353.079, 296.742 357.609, 296.517 357.973 C 296.176 358.525, 292.733 370.782, 291.454 376 C 291.252 376.825, 289.254 383.800, 287.013 391.500 C 284.773 399.200, 281.833 409.325, 280.480 414 C 279.127 418.675, 276.493 427.675, 274.627 434 C 269.808 450.332, 265.681 469.594, 266.393 472.430 C 266.806 474.075, 268.151 475.225, 270.612 476.037 C 277.020 478.152, 277.996 476.259, 287.146 444 C 288.783 438.225, 290.808 431.475, 291.646 429 C 292.483 426.525, 293.981 421.350, 294.976 417.500 C 295.970 413.650, 299.783 400.150, 303.448 387.500 C 307.114 374.850, 311.250 360.225, 312.640 355 C 315.139 345.606, 318.725 334.255, 319.683 332.704 C 320.853 330.810, 322.779 334.454, 323.411 339.759 C 325.145 354.296, 326.903 370.069, 327.452 376 C 328.333 385.529, 332.921 416.801, 334.159 421.717 C 336.202 429.830, 342.571 433.400, 347.538 429.217 C 350.341 426.856, 355.122 419.641, 358.464 412.731 C 361.028 407.428, 364.231 403.351, 362.701 407.336 C 361.792 409.707, 362.717 409.397, 364.065 406.879 C 364.939 405.246, 364.922 404.930, 363.993 405.505 C 363.113 406.048, 362.985 405.607, 363.521 403.875 C 364.742 399.926, 369.132 392.964, 370.045 393.528 C 370.515 393.818, 371.397 393.031, 372.005 391.778 C 373.064 389.596, 373.045 389.582, 371.555 391.441 C 369.293 394.264, 369.651 391.706, 372.098 387.559 C 373.252 385.603, 374.579 384.240, 375.048 384.529 C 375.516 384.819, 376.397 384.031, 377.005 382.778 C 378.064 380.596, 378.045 380.582, 376.555 382.441 C 373.649 386.068, 374.962 381.915, 378.852 375.174 C 380.971 371.504, 384.957 364, 387.711 358.500 C 397.702 338.548, 403.793 327.500, 404.802 327.500 C 405.369 327.500, 406.208 327.090, 406.667 326.590 C 407.151 326.061, 406.976 325.981, 406.250 326.399 C 405.563 326.794, 405 326.698, 405 326.185 C 405 324.464, 410.159 316, 411.208 316 C 411.792 316, 411.645 316.739, 410.872 317.692 C 409.940 318.842, 409.901 319.143, 410.750 318.633 C 411.624 318.108, 412.036 318.728, 412.118 320.691 L 412.237 323.500 413 320.500 C 413.713 317.696, 413.781 317.795, 414.026 322 C 414.170 324.475, 414.403 337.750, 414.544 351.500 C 415.279 423.119, 417.116 451.175, 421.663 460.236 C 423.878 464.648, 430.771 465.165, 432.956 461.083 C 433.563 459.948, 433.545 455.339, 432.908 448.400 C 432.357 442.405, 431.697 417.250, 431.442 392.500 C 431.186 367.750, 430.845 342.216, 430.684 335.758 C 430.523 329.299, 430.746 324.574, 431.180 325.258 C 431.614 325.941, 431.889 321.325, 431.791 315 L 431.613 303.500 431.056 313.500 L 430.500 323.500 429.750 311.500 C 428.382 289.623, 427.241 284.908, 422.390 281.092 C 419.536 278.847, 417.776 278.613, 414.297 280.014 M 577.644 306.031 C 577.114 308.680, 572.838 347.451, 572.714 350.736 C 572.648 352.453, 571.042 352.765, 558.518 353.493 C 552.478 353.844, 547.356 354.311, 547.136 354.530 C 546.917 354.750, 545.924 354.494, 544.929 353.962 C 543.693 353.301, 542.895 353.361, 542.406 354.152 C 541.962 354.870, 542.129 355.038, 542.845 354.595 C 543.614 354.121, 544 354.825, 544 356.700 C 544 358.524, 544.795 360.035, 546.250 360.980 C 549.300 362.961, 557.243 364.980, 563.814 365.444 C 566.791 365.654, 569.590 366.203, 570.034 366.663 C 570.478 367.123, 570.201 376.950, 569.419 388.500 C 567.212 421.100, 567.388 436.408, 570.133 450.739 C 571.036 455.450, 571.458 456.065, 574.319 456.843 C 579.560 458.266, 580.674 456.971, 581.464 448.536 C 581.852 444.398, 582.581 440.759, 583.085 440.448 C 583.588 440.137, 583.955 438.896, 583.900 437.691 C 583.808 435.651, 583.745 435.673, 583 438 C 581.867 441.538, 581.888 440.429, 583.496 412 C 585.880 369.866, 586.167 366.614, 587.656 364.896 C 588.616 363.788, 591.593 363.092, 597.273 362.648 C 601.798 362.294, 606.625 361.789, 608 361.527 C 620.718 359.096, 622.896 357.876, 623.118 353.059 C 623.232 350.610, 623.271 350.629, 624.045 353.500 L 624.854 356.500 624.677 353.500 C 624.580 351.850, 624.232 350.725, 623.904 351 C 623.576 351.275, 622.534 350.858, 621.589 350.074 C 620.406 349.092, 617.696 348.707, 612.876 348.836 C 605.843 349.025, 593.224 350.536, 589.500 351.635 C 588.141 352.036, 587.821 351.895, 588.500 351.197 C 589.050 350.632, 590.625 349.945, 592 349.671 C 593.668 349.338, 593.335 349.227, 591 349.336 L 587.500 349.500 588 336.500 C 589.077 308.489, 588.752 306.035, 583.714 304.213 C 578.904 302.474, 578.320 302.649, 577.644 306.031 M 590.374 321.500 C 590.376 327.550, 590.541 329.896, 590.740 326.713 C 590.939 323.531, 590.937 318.581, 590.736 315.713 C 590.535 312.846, 590.372 315.450, 590.374 321.500 M 432.349 349 C 432.349 353.675, 432.522 355.587, 432.732 353.250 C 432.943 350.913, 432.943 347.087, 432.732 344.750 C 432.522 342.413, 432.349 344.325, 432.349 349 M 517.586 356.043 C 515.983 356.523, 514.226 356.640, 513.681 356.303 C 513.137 355.966, 512.988 356.172, 513.351 356.759 C 513.725 357.365, 511.361 359.597, 507.892 361.914 C 501.132 366.427, 500.088 366.851, 502.128 364.250 C 503.370 362.666, 503.335 362.630, 501.761 363.863 C 500.805 364.613, 500.249 365.594, 500.527 366.043 C 501.055 366.898, 492.710 375.224, 490.673 375.875 C 490.028 376.081, 491.298 374.281, 493.495 371.875 C 496.527 368.553, 496.106 368.816, 491.745 372.966 C 488.585 375.972, 486 378.629, 486 378.871 C 486 379.112, 486.900 378.495, 488 377.500 C 491.680 374.169, 490.054 377.212, 484.439 384.161 C 481.381 387.946, 478.487 390.801, 478.009 390.505 C 477.530 390.209, 476.813 390.494, 476.415 391.138 C 475.963 391.869, 476.124 392.041, 476.845 391.595 C 478.694 390.453, 478.227 391.606, 474.451 397.509 C 472.499 400.561, 470.505 402.812, 470.020 402.512 C 469.535 402.213, 468.813 402.494, 468.415 403.138 C 467.963 403.869, 468.124 404.041, 468.845 403.595 C 470.660 402.474, 470.294 403.564, 465.523 413.504 C 457.745 429.712, 457.272 440.685, 464.022 448.373 C 465.635 450.209, 466.729 451.938, 466.453 452.214 C 466.177 452.489, 466.750 453.342, 467.726 454.107 C 469.373 455.400, 469.393 455.361, 468 453.563 C 466.612 451.770, 466.649 451.686, 468.500 452.428 C 475.650 455.297, 481.834 454.849, 486.577 451.118 C 490.033 448.400, 492.322 448.372, 489 451.089 C 487.066 452.671, 486.972 452.905, 488.582 452.122 C 490.900 450.995, 493.699 448, 492.435 448 C 491.990 448, 495.892 443.613, 501.106 438.250 C 506.320 432.887, 512.704 426.033, 515.293 423.017 L 520 417.534 520.118 420.517 L 520.237 423.500 520.934 420.500 C 521.564 417.793, 521.707 418.037, 522.396 423 C 523.730 432.611, 526.941 450.360, 528.072 454.378 C 529.331 458.848, 533.053 463, 535.800 463 C 538.457 463, 541.116 459.722, 541.193 456.351 C 541.228 454.783, 540.516 445.400, 539.610 435.500 C 538.703 425.600, 537.512 412.550, 536.963 406.500 C 536.098 396.974, 534.044 368.766, 533.637 360.833 C 533.562 359.367, 533.275 358.222, 533 358.289 C 532.725 358.356, 531.060 357.644, 529.300 356.706 C 525.850 354.867, 522.207 354.661, 517.586 356.043 M 432.320 364 C 432.320 367.575, 432.502 369.038, 432.723 367.250 C 432.945 365.462, 432.945 362.538, 432.723 360.750 C 432.502 358.962, 432.320 360.425, 432.320 364 M 568.320 378 C 568.320 381.575, 568.502 383.038, 568.723 381.250 C 568.945 379.462, 568.945 376.538, 568.723 374.750 C 568.502 372.962, 568.320 374.425, 568.320 378 M 514.677 374.756 C 513.618 374.999, 513.075 375.754, 513.383 376.555 C 513.674 377.315, 513.413 378.245, 512.802 378.622 C 512.129 379.038, 511.972 378.854, 512.405 378.155 C 512.797 377.520, 512.688 377, 512.163 377 C 510.810 377, 495.993 392.921, 496.032 394.333 C 496.049 394.975, 496.724 394.626, 497.532 393.559 C 498.339 392.491, 499 392.099, 499 392.686 C 499 394.091, 496.486 396.153, 495.714 395.381 C 494.607 394.274, 481.376 415.581, 477.665 424.446 C 472.147 437.626, 472.907 442.520, 479.719 437.674 C 489.972 430.378, 515.387 402.207, 507.750 406.601 C 507.024 407.019, 506.849 406.939, 507.333 406.410 C 507.792 405.910, 508.692 405.489, 509.333 405.476 C 509.975 405.463, 510.438 404.680, 510.363 403.737 C 510.285 402.765, 510.684 402.305, 511.283 402.675 C 511.966 403.097, 512.084 402.662, 511.617 401.445 C 511.220 400.409, 511.221 399.888, 511.621 400.288 C 512.021 400.688, 513.668 398.649, 515.281 395.758 C 520.436 386.515, 520.062 373.519, 514.677 374.756 M 413.360 398 C 413.360 403.225, 413.529 405.363, 413.735 402.750 C 413.941 400.137, 413.941 395.863, 413.735 393.250 C 413.529 390.637, 413.360 392.775, 413.360 398 M 566.310 406.500 C 566.315 409.800, 566.502 411.029, 566.725 409.232 C 566.947 407.435, 566.943 404.735, 566.715 403.232 C 566.486 401.729, 566.304 403.200, 566.310 406.500 M 623.100 429.083 C 623.155 432.063, 623.551 435.625, 623.981 437 C 624.421 438.411, 624.536 436.232, 624.243 432 C 623.628 423.117, 622.958 421.409, 623.100 429.083 M 500.966 440.750 L 495.500 446.500 501.250 441.034 C 506.592 435.956, 507.458 435, 506.716 435 C 506.560 435, 503.972 437.587, 500.966 440.750 M 379.906 480.464 C 374.321 482.520, 369.957 484.968, 364.415 489.152 C 358.692 493.473, 356.748 494.116, 359.588 490.750 C 361.338 488.675, 361.275 488.686, 358.774 490.895 C 357.282 492.213, 356.292 493.663, 356.573 494.119 C 356.855 494.574, 356.142 495.746, 354.990 496.723 C 353.838 497.701, 349.949 502.211, 346.347 506.747 C 342.745 511.282, 339.425 514.762, 338.968 514.480 C 338.512 514.198, 337.813 514.494, 337.415 515.138 C 336.963 515.869, 337.124 516.041, 337.845 515.595 C 339.781 514.399, 339.183 515.741, 334.650 522.762 C 332.257 526.468, 329.537 530.752, 328.606 532.282 C 327.674 533.812, 326.513 534.817, 326.025 534.516 C 325.537 534.214, 324.813 534.494, 324.415 535.138 C 323.963 535.869, 324.124 536.041, 324.845 535.595 C 326.504 534.570, 326.418 534.831, 321.941 544.384 C 319.709 549.148, 317.464 552.787, 316.953 552.471 C 316.432 552.149, 316.313 552.652, 316.681 553.612 C 317.164 554.868, 316.985 555.109, 316.015 554.510 C 315.109 553.949, 314.929 554.076, 315.445 554.910 C 315.859 555.581, 314.781 560.263, 313.048 565.315 C 306.801 583.527, 306.437 585.823, 306.657 605.546 C 306.794 617.811, 307.147 620.587, 309.447 627.436 C 311.991 635.015, 315.807 642.691, 318.767 646.187 C 319.564 647.128, 319.861 648.455, 319.438 649.187 C 319.021 649.909, 319.041 650.173, 319.484 649.773 C 319.926 649.373, 321.811 650.383, 323.672 652.017 C 330.353 657.883, 334.699 659.477, 344 659.470 C 352.150 659.465, 352.871 659.273, 361.500 654.820 C 371.372 649.726, 374.401 647.571, 384.826 638.224 C 390.330 633.290, 391.719 632.435, 391.326 634.224 C 390.912 636.109, 391.027 636.242, 391.992 635 C 392.929 633.793, 393.047 634.086, 392.593 636.500 C 390.904 645.496, 389.934 655.990, 390.462 659.553 C 390.916 662.613, 391.768 664.023, 393.942 665.306 C 400.687 669.291, 403.104 663.764, 406.974 635.500 C 407.576 631.100, 408.514 625.475, 409.059 623 C 409.603 620.525, 410.231 617.600, 410.453 616.500 C 410.675 615.400, 411.572 611.350, 412.447 607.500 C 415.095 595.838, 416.869 587.653, 417.401 584.647 C 418.262 579.777, 420.725 577.098, 425.433 575.913 C 431.459 574.395, 433.806 572.036, 433.225 568.080 C 432.331 561.990, 427.604 561.783, 409.500 567.042 C 399.777 569.867, 386.035 572.744, 371.250 575.050 C 365.307 575.977, 364 576.510, 364 578.009 C 364 581.381, 365.223 583.073, 369.083 585.043 C 373.870 587.484, 379.250 587.485, 389.500 585.043 C 402.076 582.047, 402.573 581.943, 401.250 582.572 C 400.563 582.899, 400.032 584.142, 400.070 585.333 C 400.138 587.431, 400.168 587.437, 401 585.500 L 401.859 583.500 401.918 585.500 C 401.991 588.018, 396.060 601.703, 393.084 605.882 C 391.854 607.610, 390.463 608.786, 389.993 608.495 C 389.523 608.205, 388.813 608.494, 388.415 609.138 C 387.963 609.869, 388.124 610.041, 388.845 609.595 C 389.480 609.203, 390 609.303, 390 609.819 C 390 611.039, 387.468 613.135, 386.800 612.467 C 386.517 612.184, 385.658 612.750, 384.893 613.726 C 383.626 615.339, 383.659 615.376, 385.250 614.128 C 386.212 613.373, 387 613.062, 387 613.436 C 387 614.635, 380.703 622, 379.678 622 C 379.134 622, 379.540 620.987, 380.579 619.750 C 381.628 618.501, 381.035 618.802, 379.245 620.427 C 377.472 622.037, 376.242 623.575, 376.513 623.846 C 377.172 624.505, 373.955 628, 372.690 628 C 372.140 628, 372.547 626.987, 373.595 625.750 L 375.500 623.500 373.274 625.384 C 372.049 626.420, 371.279 627.642, 371.562 628.100 C 372.332 629.346, 364.477 634.781, 356.063 638.825 C 338.478 647.277, 328.917 642.725, 324.017 623.567 C 320.089 608.208, 322.228 590.293, 330.593 568.500 C 334.765 557.630, 342.185 543.500, 343.721 543.500 C 344.333 543.500, 345.208 543.090, 345.667 542.590 C 346.151 542.061, 345.976 541.981, 345.250 542.399 C 344.563 542.794, 344 542.844, 344 542.509 C 344 540.240, 353.856 525.523, 354.767 526.433 C 355.052 526.718, 354.716 527.638, 354.020 528.476 C 353.324 529.314, 353.005 530, 353.309 530 C 353.614 530, 354.889 528.538, 356.143 526.750 C 357.654 524.595, 357.845 523.962, 356.711 524.872 C 353.884 527.140, 354.772 524.984, 358.577 520.341 C 360.544 517.941, 362.503 516.193, 362.931 516.457 C 363.359 516.722, 364.787 515.715, 366.105 514.219 L 368.500 511.500 365.750 513.924 C 364.238 515.258, 363 515.920, 363 515.395 C 363 514.262, 374.435 502.996, 377.973 500.644 C 380.852 498.729, 382.424 498.505, 381.405 500.155 C 380.959 500.876, 381.131 501.037, 381.862 500.585 C 382.506 500.187, 382.786 499.462, 382.484 498.973 C 381.712 497.725, 387.577 494.878, 391.130 494.777 C 393.352 494.714, 395.078 495.719, 398.035 498.796 C 402.661 503.611, 408.708 505.844, 410.735 503.487 C 411.518 502.576, 411.545 502.390, 410.804 503.004 C 408.846 504.624, 407.894 504.143, 409.133 502.159 C 412.305 497.080, 405.290 485.441, 396.625 481.406 C 390.945 478.761, 385.383 478.448, 379.906 480.464 M 738.500 514.074 C 735.200 514.578, 729.711 515.890, 726.303 516.991 C 719.364 519.232, 701.798 529.455, 698.076 533.419 C 696.742 534.838, 695.201 536, 694.651 536 C 694.101 536, 694.708 534.875, 696 533.500 C 697.292 532.125, 698.139 531, 697.883 531 C 697.626 531, 695.410 533.115, 692.958 535.700 C 690.506 538.285, 689.288 539.804, 690.250 539.077 C 691.212 538.350, 692 538.190, 692 538.723 C 692 539.866, 688.932 542.791, 687.500 543.012 C 686.950 543.097, 686.275 543.426, 686 543.744 C 685.725 544.061, 686.063 543.997, 686.750 543.601 C 688.419 542.641, 688.328 544.143, 686.506 547.636 C 684.285 551.894, 684.607 558.122, 687.250 562.035 C 688.487 563.867, 692.201 567.196, 695.502 569.433 C 705.099 575.936, 706.688 577.169, 704.698 576.568 C 703.610 576.239, 703.148 576.431, 703.532 577.052 C 703.882 577.618, 705.010 577.814, 706.039 577.488 C 708.062 576.846, 713.298 579.709, 712.490 581.016 C 712.219 581.455, 712.805 581.602, 713.791 581.344 C 715.706 580.844, 728 588.456, 728 590.142 C 728 590.679, 727.438 590.794, 726.750 590.398 C 726.063 590.002, 726.591 590.875, 727.924 592.339 C 729.258 593.802, 730.565 595, 730.829 595 C 731.094 595, 730.495 594.100, 729.500 593 C 728.505 591.900, 728.179 591, 728.777 591 C 730.138 591, 734.012 596.343, 733.965 598.154 C 733.894 600.840, 731.225 604.274, 727.007 607.107 C 722.636 610.042, 720.376 610.819, 721.501 608.998 C 721.842 608.447, 720.518 608.942, 718.560 610.097 C 714.177 612.683, 713.856 613.643, 718.110 611.443 C 720.027 610.452, 720.933 610.300, 720.471 611.047 C 719.426 612.738, 705.892 618.908, 697.500 621.518 L 690.500 623.695 690.586 627.837 C 690.764 636.502, 696.604 637.937, 711.261 632.920 C 721.584 629.387, 727.831 626.408, 732.944 622.579 C 737.415 619.232, 739.398 619.238, 735.500 622.588 L 732.500 625.165 735.762 623.006 C 737.556 621.819, 738.809 620.500, 738.547 620.077 C 737.968 619.139, 743.417 613.751, 744.177 614.510 C 744.473 614.806, 745.342 614.250, 746.107 613.274 C 747.374 611.661, 747.341 611.624, 745.750 612.872 C 743.411 614.707, 743.539 614.010, 746.488 608.852 C 749.335 603.872, 749.648 599.089, 747.522 593.061 C 746.708 590.756, 746.146 588.337, 746.272 587.685 C 746.397 587.033, 745.915 586.620, 745.200 586.767 C 744.484 586.914, 742.818 585.748, 741.496 584.177 C 740.174 582.606, 737.496 580.236, 735.546 578.911 C 733.595 577.585, 732.205 575.952, 732.456 575.282 C 732.707 574.612, 732.413 573.755, 731.802 573.378 C 731.129 572.962, 730.972 573.146, 731.405 573.845 C 732.484 575.593, 731.315 575.259, 726.178 572.356 C 718.354 567.933, 714.009 564.795, 714.534 563.945 C 714.808 563.501, 714.506 562.813, 713.862 562.415 C 713.131 561.963, 712.959 562.124, 713.405 562.845 C 714.802 565.107, 711.436 563.903, 706.750 560.465 C 704.138 558.549, 702 556.286, 702 555.437 C 702 553.628, 707.064 547, 708.446 547 C 708.967 547, 707.954 548.484, 706.196 550.298 C 702.399 554.215, 702.286 555.086, 705.250 557.595 C 707.498 559.498, 707.498 559.498, 705.750 557.421 C 703.383 554.609, 703.519 553.835, 706.964 550.534 C 708.595 548.972, 709.715 547.347, 709.453 546.924 C 708.676 545.667, 717.092 539.339, 725.158 535.116 C 735.762 529.563, 754.282 524.116, 752.444 527.091 C 751.949 527.892, 752.109 528.051, 752.912 527.554 C 753.584 527.139, 753.891 526.558, 753.596 526.263 C 753.301 525.967, 753.946 524.480, 755.030 522.959 C 756.113 521.437, 757.007 519.361, 757.015 518.346 C 757.028 516.768, 757.185 516.718, 758.091 518 C 759.034 519.333, 759.107 519.333, 758.743 518 C 758.518 517.175, 757.921 516.484, 757.417 516.465 C 756.913 516.445, 755.544 515.897, 754.375 515.246 C 751.213 513.486, 745.246 513.046, 738.500 514.074 M 480.148 539.512 C 474.988 542.462, 474.313 542.584, 476.080 540.250 C 476.809 539.288, 475.514 540.279, 473.203 542.453 C 470.891 544.627, 469 546.618, 469 546.877 C 469 547.137, 470.125 546.292, 471.500 545 C 472.875 543.708, 474 543.125, 474 543.703 C 474 544.282, 473.278 545.355, 472.395 546.087 C 467.347 550.277, 458.811 565.967, 454.217 579.500 C 449.026 594.793, 448.109 599.112, 447.530 611 C 446.659 628.876, 450.074 637.664, 459.833 642.658 C 462.153 643.845, 463.702 645.009, 463.276 645.244 C 462.849 645.480, 463.175 645.490, 464 645.267 C 464.825 645.044, 467.643 644.453, 470.261 643.955 C 472.880 643.456, 477.468 641.687, 480.457 640.024 C 486.437 636.697, 487.490 636.381, 486.367 638.250 C 485.851 639.110, 486.141 639.074, 487.297 638.137 C 488.222 637.387, 488.780 636.453, 488.539 636.062 C 488.028 635.237, 502.774 620.335, 503.609 620.833 C 503.916 621.017, 504.467 620.832, 504.833 620.423 C 505.200 620.014, 504.938 620.003, 504.250 620.399 C 502.384 621.472, 502.777 619.963, 505.526 615.500 C 508.301 610.995, 508.743 605.382, 506.556 602.441 C 505.181 600.593, 504.739 600.870, 497.284 608.250 C 492.978 612.513, 489.027 616, 488.503 616 C 487.128 616, 502.116 600.985, 504.500 599.975 C 505.860 599.398, 506.013 599.106, 504.978 599.063 C 504.141 599.029, 499.651 602.825, 495 607.500 C 490.349 612.175, 486.941 616, 487.427 616 C 487.913 616, 487.495 616.900, 486.500 618 C 484.275 620.458, 482.226 620.674, 484.128 618.250 C 485.370 616.666, 485.335 616.630, 483.761 617.863 C 482.805 618.613, 482.247 619.591, 482.523 620.037 C 483.683 621.914, 470.565 628.939, 465.828 628.978 C 461.742 629.012, 460.779 624.817, 461.980 612.211 C 462.518 606.566, 463.423 601.079, 463.991 600.017 C 464.602 598.876, 466.554 597.832, 468.762 597.465 C 470.818 597.123, 475.200 595.957, 478.500 594.873 C 481.800 593.789, 485.358 592.628, 486.406 592.293 C 487.809 591.846, 488.099 592.031, 487.502 592.997 C 486.961 593.873, 487.080 594.068, 487.862 593.585 C 488.506 593.187, 488.818 592.514, 488.556 592.090 C 488.094 591.344, 493.237 587, 494.582 587 C 494.947 587, 494.627 587.788, 493.872 588.750 C 492.630 590.334, 492.665 590.370, 494.239 589.137 C 495.195 588.387, 495.777 587.448, 495.530 587.049 C 495.021 586.224, 502.812 578.323, 503.632 578.833 C 503.926 579.017, 504.467 578.832, 504.833 578.423 C 505.200 578.014, 504.938 578.003, 504.250 578.399 C 502.471 579.422, 502.631 578.900, 506.099 572.352 C 508.911 567.042, 509.157 565.852, 508.757 559.500 C 508.476 555.030, 507.536 550.978, 506.158 548.290 C 503.543 543.187, 503.459 542.330, 505.750 544.128 C 507.341 545.376, 507.374 545.339, 506.107 543.726 C 505.342 542.750, 504.509 542.158, 504.257 542.409 C 504.005 542.661, 501.977 541.547, 499.750 539.934 C 494.324 536.003, 486.577 535.837, 480.148 539.512 M 629.500 539 C 629.160 539.550, 629.235 540, 629.666 540 C 630.097 540, 627.120 543.353, 623.049 547.450 C 618.979 551.548, 615.329 554.703, 614.938 554.461 C 614.547 554.220, 613.613 554.805, 612.863 555.761 C 611.630 557.335, 611.666 557.370, 613.250 556.128 C 616.359 553.689, 615.152 555.872, 606.982 567.465 C 602.572 573.723, 598.304 580.422, 597.497 582.353 C 595.812 586.385, 594.795 587.242, 592.663 586.424 C 591.698 586.054, 591.332 585.052, 591.658 583.671 C 591.940 582.477, 592.337 574.451, 592.541 565.836 C 592.864 552.205, 592.698 549.999, 591.264 548.836 C 590.089 547.883, 589.831 547.859, 590.367 548.750 C 591.325 550.344, 591.014 550.322, 586.614 548.483 C 580.144 545.780, 573.413 548.908, 567.827 557.213 C 564.185 562.628, 559.562 570.342, 554.234 579.894 C 551.424 584.932, 551.176 585.129, 550.465 582.894 C 549.736 580.599, 549.668 580.583, 548.838 582.500 C 548.266 583.821, 548.140 582.802, 548.468 579.500 C 550.553 558.479, 551.033 550.205, 550.376 546.629 C 549.959 544.358, 549.585 542.275, 549.544 542 C 549.350 540.701, 547.766 539, 546.750 539 C 546.127 539, 546.491 539.698, 547.559 540.552 C 549.423 542.042, 549.401 542.076, 547 541.402 C 542.615 540.171, 541.615 540.440, 540.257 543.209 C 538.540 546.714, 531.046 606.540, 530.737 619.210 C 530.540 627.291, 530.790 629.210, 532.231 630.655 C 535.578 634.011, 546 632.557, 546 628.734 C 546 628.209, 545.071 628.841, 543.936 630.139 C 541.021 633.473, 540.505 634.692, 552.876 609 C 561.918 590.223, 574.149 568, 575.442 568 C 575.571 568, 575.738 569.639, 575.813 571.642 C 576.011 576.911, 576.982 577.119, 577.100 571.917 C 577.177 568.490, 577.353 568.052, 577.886 569.962 C 578.263 571.317, 578.264 575.367, 577.887 578.962 C 577.509 582.558, 576.885 592.757, 576.499 601.626 C 575.787 617.992, 576.102 620.244, 579.587 623.729 C 581.387 625.530, 587.006 625.305, 589.171 623.345 C 591.172 621.535, 591.743 622.857, 589.800 624.800 C 589.140 625.460, 588.884 626, 589.232 626 C 589.579 626, 590.889 624.538, 592.143 622.750 C 593.654 620.595, 593.845 619.962, 592.711 620.872 C 589.930 623.103, 590.652 621.342, 597.531 609.111 C 611.403 584.450, 628.071 560.578, 633.300 557.883 C 634.930 557.043, 634.593 557.751, 632 560.615 C 629.690 563.167, 629.435 563.660, 631.250 562.066 C 632.763 560.738, 634.007 560.067, 634.015 560.576 C 634.024 561.084, 634.487 560.825, 635.046 560 C 635.749 558.961, 635.903 561.726, 635.547 569 C 635.265 574.775, 634.759 585.270, 634.423 592.323 C 633.635 608.842, 634.544 618.024, 637.384 622.253 C 639.985 626.127, 644.650 627.199, 646.701 624.395 C 647.681 623.055, 648.004 622.972, 648.015 624.059 C 648.028 625.274, 648.182 625.265, 649 624 C 649.533 623.175, 649.898 620.475, 649.810 618 L 649.651 613.500 649.268 617.750 C 648.848 622.416, 646.987 623.659, 647.022 619.250 C 647.034 617.737, 647.699 605.025, 648.500 591 C 650.908 548.846, 650.477 543.324, 644.475 539.392 C 641.940 537.731, 635.878 537.809, 631.586 539.559 C 630.238 540.109, 629.886 539.994, 630.395 539.170 C 630.793 538.526, 630.893 538, 630.618 538 C 630.343 538, 629.840 538.450, 629.500 539 M 482.776 555.250 C 478.431 560.580, 476.730 563.754, 477.528 565.045 C 477.869 565.598, 477.605 565.926, 476.941 565.775 C 475.580 565.465, 470.440 574.910, 469.471 579.500 C 469.118 581.176, 469.205 581.997, 469.669 581.361 C 470.276 580.528, 470.847 580.595, 471.789 581.611 C 472.753 582.649, 472.774 583, 471.873 583 C 471.209 583, 470.952 583.285, 471.300 583.634 C 472.744 585.077, 483.125 578.632, 488.219 573.130 C 494.381 566.474, 496.483 561.170, 495.002 556.008 C 493.889 552.127, 492.551 551.037, 488.870 551.015 C 486.977 551.004, 485.271 552.190, 482.776 555.250 M 594.343 566.500 C 594.346 570.900, 594.522 572.576, 594.733 570.224 C 594.945 567.872, 594.942 564.272, 594.727 562.224 C 594.512 560.176, 594.339 562.100, 594.343 566.500 M 593.115 581.450 C 593.046 584.436, 593.359 586.023, 593.906 585.450 C 594.415 584.917, 594.465 582.746, 594.021 580.500 L 593.230 576.500 593.115 581.450 M 632.385 602 C 632.385 608.875, 632.545 611.688, 632.740 608.250 C 632.936 604.813, 632.936 599.188, 632.740 595.750 C 632.545 592.313, 632.385 595.125, 632.385 602 M 304.370 604 C 304.370 609.775, 304.535 612.138, 304.737 609.250 C 304.939 606.362, 304.939 601.638, 304.737 598.750 C 304.535 595.862, 304.370 598.225, 304.370 604 M 574.320 602 C 574.320 605.575, 574.502 607.038, 574.723 605.250 C 574.945 603.462, 574.945 600.538, 574.723 598.750 C 574.502 596.962, 574.320 598.425, 574.320 602 M 649.349 605 C 649.349 609.675, 649.522 611.587, 649.732 609.250 C 649.943 606.913, 649.943 603.087, 649.732 600.750 C 649.522 598.413, 649.349 600.325, 649.349 605 M 445.336 617 C 445.336 621.125, 445.513 622.813, 445.728 620.750 C 445.944 618.688, 445.944 615.313, 445.728 613.250 C 445.513 611.188, 445.336 612.875, 445.336 617 M 494.966 630.750 L 489.500 636.500 495.250 631.034 C 500.592 625.956, 501.458 625, 500.716 625 C 500.560 625, 497.972 627.587, 494.966 630.750 M 383.192 641.642 L 378.500 646.284 383 642.501 C 389.223 637.270, 389.500 637, 388.642 637 C 388.225 637, 385.772 639.089, 383.192 641.642 M 671.768 690.725 C 673.565 690.947, 676.265 690.943, 677.768 690.715 C 679.271 690.486, 677.800 690.304, 674.500 690.310 C 671.200 690.315, 669.971 690.502, 671.768 690.725 M 665.500 692.699 C 658.220 693.191, 641.437 695.859, 634.500 697.628 C 622.225 700.757, 601.087 709.379, 588 716.595 C 572.288 725.258, 563.633 731.492, 552.405 742.233 C 547.953 746.493, 544.093 749.759, 543.826 749.493 C 543.559 749.226, 542.252 750.244, 540.921 751.754 L 538.500 754.500 541.250 752.076 C 542.763 750.742, 544 750.110, 544 750.671 C 544 751.231, 543.052 752.547, 541.894 753.595 C 539.059 756.158, 529.622 769.628, 527.409 774.269 C 526.430 776.321, 525.236 778, 524.756 778 C 524.275 778, 524.160 777.550, 524.500 777 C 524.840 776.450, 524.641 776, 524.059 776 C 523.477 776, 522.954 776.788, 522.898 777.750 C 522.619 782.521, 521.134 771.499, 521.168 764.910 C 521.215 755.837, 518.627 743.290, 515.369 736.791 C 514.070 734.200, 510.315 729.203, 507.025 725.686 C 503.735 722.169, 501.261 719.073, 501.527 718.806 C 501.794 718.539, 500.997 717.461, 499.756 716.411 L 497.500 714.500 499.405 716.750 C 500.453 717.987, 500.817 719, 500.214 719 C 499.611 719, 498.834 718.540, 498.486 717.978 C 498.139 717.415, 495.075 715.543, 491.677 713.816 C 485.556 710.706, 485.355 710.676, 469.419 710.552 C 460.574 710.483, 450.224 710.711, 446.419 711.059 C 442.614 711.407, 439.073 711.311, 438.550 710.846 C 438.028 710.381, 436.903 710.032, 436.050 710.070 C 434.957 710.120, 435.079 710.367, 436.463 710.908 C 437.984 711.503, 436.759 712.182, 431.018 713.926 C 420.871 717.008, 406.998 724.095, 398 730.793 C 381.651 742.964, 356.184 766.786, 339.172 785.822 C 335.142 790.332, 331.480 793.797, 331.036 793.522 C 330.591 793.247, 329.613 793.805, 328.863 794.761 C 327.630 796.335, 327.666 796.370, 329.250 795.128 C 332.193 792.819, 331.222 794.931, 326.382 801.363 C 323.842 804.738, 317.978 813.256, 313.351 820.290 C 308.725 827.325, 304.534 832.830, 304.039 832.524 C 303.543 832.218, 302.813 832.494, 302.415 833.138 C 301.963 833.869, 302.124 834.041, 302.845 833.595 C 305.695 831.835, 303.422 835.507, 296.449 843.932 C 292.296 848.950, 288.542 852.835, 288.107 852.566 C 287.673 852.298, 285.783 853.748, 283.908 855.789 L 280.500 859.500 284.250 856.054 C 286.313 854.158, 288 853.055, 288 853.601 C 288 854.900, 280.526 862.193, 279.869 861.535 C 279.591 861.257, 277.819 862.710, 275.932 864.763 L 272.500 868.496 275.750 865.561 C 277.538 863.947, 279 863.072, 279 863.617 C 279 864.922, 272.518 871.185, 271.855 870.522 C 271.572 870.239, 270.252 871.244, 268.921 872.754 L 266.500 875.500 269.250 873.076 C 274.747 868.230, 271.776 872.482, 261.750 883.813 C 256.113 890.184, 249.250 898.122, 246.500 901.453 C 233.296 917.448, 225.689 925.926, 224.950 925.469 C 224.503 925.193, 223.813 925.494, 223.415 926.138 C 222.963 926.869, 223.124 927.041, 223.845 926.595 C 225.882 925.337, 225.081 927.750, 222.409 930.926 C 220.984 932.620, 219.440 933.772, 218.978 933.486 C 218.516 933.201, 217.813 933.494, 217.415 934.138 C 216.977 934.847, 217.123 935.042, 217.786 934.632 C 218.538 934.168, 218.703 935.058, 218.311 937.469 C 217.578 941.989, 218.637 943.200, 227.638 948.140 C 233.856 951.553, 236.482 953.960, 245.822 964.814 C 251.827 971.792, 257.698 978.357, 258.870 979.405 C 260.041 980.453, 261 981.782, 261 982.358 C 261 982.934, 259.088 981.627, 256.750 979.453 L 252.500 975.500 256.413 979.709 C 258.564 982.023, 260.680 983.698, 261.115 983.429 C 261.549 983.161, 269.463 991.523, 278.702 1002.012 C 294.637 1020.103, 298.828 1025.440, 294.413 1022.017 C 292.535 1020.562, 292.534 1020.575, 294.384 1022.744 C 295.420 1023.959, 296.627 1024.731, 297.066 1024.459 C 297.505 1024.188, 301.383 1028.326, 305.682 1033.655 C 309.982 1038.983, 316.230 1046.529, 319.567 1050.422 C 325.920 1057.833, 343.218 1078.457, 367.859 1108 C 375.887 1117.625, 382.709 1125.725, 383.019 1126 C 384.088 1126.949, 404.130 1151.032, 410.057 1158.491 C 416.312 1166.363, 417.494 1168.575, 413.750 1165.405 L 411.500 1163.500 413.384 1165.726 C 414.420 1166.951, 415.617 1167.737, 416.044 1167.473 C 416.879 1166.957, 418.664 1169.157, 441.562 1198.912 C 457.002 1218.977, 469.597 1234.191, 483.157 1249.156 C 491.929 1258.838, 493.476 1261.741, 486.250 1254.958 L 481.500 1250.500 485.907 1255.198 C 488.331 1257.781, 490.605 1259.806, 490.960 1259.698 C 492.062 1259.361, 507.980 1273.223, 507.459 1274.066 C 507.189 1274.504, 507.494 1275.187, 508.138 1275.585 C 508.869 1276.037, 509.041 1275.876, 508.595 1275.155 C 507.503 1273.387, 508.556 1273.732, 514.515 1277.095 C 517.532 1278.798, 520 1279.868, 520 1279.473 C 520 1279.078, 520.675 1279.315, 521.500 1280 C 522.536 1280.860, 523 1280.898, 523 1280.122 C 523 1279.505, 523.584 1279, 524.297 1279 C 526.160 1279, 531.193 1273.407, 543.425 1257.743 C 549.333 1250.176, 554.529 1244.209, 554.971 1244.482 C 555.412 1244.755, 556.387 1244.195, 557.137 1243.239 C 558.370 1241.665, 558.334 1241.630, 556.750 1242.872 C 554.403 1244.713, 554.541 1243.454, 557.076 1239.893 C 558.219 1238.289, 559.518 1237.202, 559.963 1237.477 C 560.409 1237.753, 561.387 1237.195, 562.137 1236.239 C 563.370 1234.665, 563.334 1234.630, 561.750 1235.872 C 560.788 1236.627, 560 1236.904, 560 1236.488 C 560 1234.971, 574.224 1217.020, 575.031 1217.519 C 575.488 1217.801, 576.187 1217.506, 576.585 1216.862 C 577.037 1216.131, 576.876 1215.959, 576.155 1216.405 C 573.957 1217.763, 575.018 1215.301, 579.067 1209.645 C 581.305 1206.521, 583.523 1204.205, 583.998 1204.499 C 584.473 1204.792, 585.187 1204.506, 585.585 1203.862 C 586.037 1203.131, 585.876 1202.959, 585.155 1203.405 C 583.125 1204.659, 583.949 1202.667, 588.278 1195.857 C 590.600 1192.203, 595.875 1183.784, 600 1177.149 C 604.279 1170.265, 608.023 1165.262, 608.718 1165.498 C 609.388 1165.726, 610.245 1165.413, 610.622 1164.802 C 611.038 1164.129, 610.854 1163.972, 610.155 1164.405 C 607.637 1165.961, 609.375 1162.684, 618.020 1149.580 C 622.981 1142.059, 627.449 1136.160, 627.951 1136.469 C 628.452 1136.779, 629.187 1136.506, 629.585 1135.862 C 630.037 1135.131, 629.876 1134.959, 629.155 1135.405 C 627.243 1136.586, 627.770 1135.489, 633.280 1126.813 C 643.313 1111.015, 655.929 1093.838, 657.008 1094.505 C 657.478 1094.795, 658.187 1094.506, 658.585 1093.862 C 659.037 1093.131, 658.876 1092.959, 658.155 1093.405 C 656.083 1094.685, 656.923 1092.967, 661.692 1086.179 C 670.262 1073.979, 679.125 1062.959, 679.954 1063.472 C 680.405 1063.750, 681.387 1063.195, 682.137 1062.239 C 683.370 1060.665, 683.334 1060.630, 681.750 1061.872 C 678.218 1064.642, 680.227 1061.267, 687.771 1051.755 C 692.022 1046.395, 697.075 1039.879, 699 1037.275 C 702.626 1032.369, 716.720 1014.330, 722.079 1007.734 C 723.763 1005.663, 725.507 1004.195, 725.956 1004.473 C 726.406 1004.751, 727.387 1004.195, 728.137 1003.239 C 729.370 1001.665, 729.334 1001.630, 727.750 1002.872 C 723.112 1006.510, 727.424 1000.273, 742.176 982.006 C 757.201 963.401, 766.706 952.503, 767.726 952.710 C 768.296 952.826, 769.603 951.926, 770.631 950.710 L 772.500 948.500 770.250 950.405 C 769.013 951.453, 768 951.956, 768 951.522 C 768 950.579, 789.639 924.730, 798.632 914.931 C 802.554 910.657, 804.993 907.129, 804.981 905.746 C 804.968 904.218, 801.121 899.688, 792.943 891.571 C 785.636 884.319, 781.130 879.104, 781.450 878.269 C 781.740 877.514, 781.611 877.123, 781.163 877.399 C 780.715 877.676, 772.440 869.712, 762.773 859.701 C 753.107 849.691, 744.939 841.249, 744.624 840.941 C 744.113 840.445, 744.550 836.639, 746.455 825 C 749.365 807.217, 749.349 784.814, 746.413 767.500 C 744.634 757.004, 738.478 737.871, 734.074 729.146 C 730.704 722.471, 730.428 721.529, 732.155 722.595 C 732.876 723.041, 733.037 722.869, 732.585 722.138 C 732.187 721.494, 731.481 721.203, 731.016 721.490 C 730.551 721.777, 729.205 720.449, 728.024 718.538 C 726.843 716.627, 722.867 712.306, 719.188 708.935 C 715.510 705.565, 712.500 702.438, 712.500 701.987 C 712.500 701.536, 712.090 700.792, 711.590 700.333 C 711.061 699.849, 710.981 700.024, 711.399 700.750 C 712.430 702.543, 711.634 702.340, 705.221 699.181 C 702.075 697.631, 697.700 695.845, 695.500 695.213 C 690.996 693.918, 675.786 691.905, 672.591 692.180 C 671.441 692.279, 668.250 692.513, 665.500 692.699 M 660.429 708.115 C 635.744 710.711, 602.351 723.938, 578.642 740.511 C 571.214 745.704, 558 757.711, 558 759.268 C 558 759.862, 559.237 759.258, 560.750 757.924 L 563.500 755.500 561.079 758.246 C 559.748 759.756, 558.426 760.760, 558.142 760.476 C 557.490 759.823, 550 767.074, 550 768.358 C 550 768.882, 551.013 768.453, 552.250 767.405 L 554.500 765.500 552.589 767.756 C 551.539 768.997, 550.450 769.784, 550.171 769.504 C 549.509 768.843, 546 772.018, 546 773.277 C 546 773.810, 546.788 773.627, 547.750 772.872 C 549.329 771.634, 549.368 771.668, 548.154 773.218 C 547.414 774.163, 546.345 774.838, 545.779 774.718 C 545.213 774.598, 544.523 775.125, 544.245 775.889 C 543.907 776.821, 544.163 777.017, 545.025 776.485 C 545.873 775.960, 546.063 776.088, 545.585 776.862 C 545.187 777.506, 544.448 777.777, 543.943 777.465 C 543.437 777.152, 541.218 779.689, 539.012 783.103 C 534.957 789.377, 534.044 791.709, 536.155 790.405 C 536.876 789.959, 537.037 790.131, 536.585 790.862 C 536.187 791.506, 535.462 791.786, 534.973 791.484 C 534.485 791.182, 533.391 792.277, 532.543 793.918 C 530.701 797.479, 530.602 798.364, 532.155 797.405 C 532.876 796.959, 533.037 797.131, 532.585 797.862 C 532.187 798.506, 531.494 798.805, 531.044 798.527 C 529.823 797.772, 528.767 799.567, 524.294 810 C 518.730 822.981, 513.447 839.683, 510.284 854.291 C 506.874 870.045, 506.380 896.335, 509.293 907 C 511.620 915.519, 518.024 928.205, 519.677 927.570 C 520.370 927.305, 521.245 927.587, 521.622 928.198 C 522.038 928.871, 521.854 929.028, 521.155 928.595 C 519.308 927.454, 519.817 929.486, 522.161 932.615 C 525.497 937.068, 535.323 947, 536.393 947 C 536.919 947, 536.259 945.763, 534.928 944.250 C 532.584 941.587, 532.609 941.592, 535.743 944.427 C 537.523 946.037, 538.763 947.571, 538.498 947.835 C 537.856 948.477, 539.995 951, 541.181 951 C 541.697 951, 541.797 950.480, 541.405 949.845 C 540.972 949.146, 541.129 948.962, 541.802 949.378 C 542.413 949.755, 542.682 950.665, 542.400 951.399 C 541.776 953.027, 555.459 959.940, 565.010 962.822 C 573.667 965.435, 592.461 967.345, 601.348 966.516 C 615.615 965.186, 645.342 954.980, 643.523 952.037 C 643.217 951.543, 643.494 950.813, 644.138 950.415 C 644.869 949.963, 645.041 950.124, 644.595 950.845 C 643.388 952.799, 645.379 952.144, 651.083 948.709 C 657.503 944.843, 663.137 940.031, 662.483 938.973 C 662.230 938.562, 662.805 937.613, 663.761 936.863 C 665.335 935.630, 665.370 935.666, 664.128 937.250 C 661.673 940.380, 664.516 939.095, 668 935.500 C 669.866 933.575, 670.991 932, 670.500 932 C 670.009 932, 671.100 930.460, 672.925 928.578 C 674.749 926.696, 676.750 925.316, 677.371 925.511 C 677.992 925.707, 680.862 923.003, 683.750 919.503 C 689.298 912.777, 690.491 910.428, 686.750 913.595 L 684.500 915.500 686.411 913.244 C 687.461 912.003, 688.545 911.212, 688.819 911.485 C 689.473 912.139, 692 910.021, 692 908.819 C 692 908.303, 691.438 908.206, 690.750 908.601 C 690.024 909.019, 689.849 908.939, 690.333 908.410 C 690.792 907.910, 691.654 907.500, 692.250 907.500 C 692.846 907.500, 693.542 906.875, 693.796 906.111 C 694.105 905.185, 693.831 904.986, 692.975 905.515 C 692.127 906.040, 691.937 905.912, 692.415 905.138 C 692.813 904.494, 693.522 904.205, 693.992 904.495 C 695.494 905.423, 705.516 889.914, 711.859 876.847 C 715.236 869.889, 718 863.882, 718 863.499 C 718 863.116, 718.612 861.384, 719.359 859.651 C 722.424 852.549, 723.044 850.567, 725.905 838.731 C 733.042 809.213, 732.444 770.933, 724.464 746.485 C 720.378 733.970, 716.158 726.018, 710.398 719.979 C 699.416 708.465, 686.426 705.381, 660.429 708.115 M 452.768 708.725 C 454.565 708.947, 457.265 708.943, 458.768 708.715 C 460.271 708.486, 458.800 708.304, 455.500 708.310 C 452.200 708.315, 450.971 708.502, 452.768 708.725 M 453 724.768 C 442.275 725.591, 419.125 733.982, 419.738 736.824 C 419.869 737.431, 419.370 737.695, 418.629 737.411 C 417.067 736.812, 404.500 745.106, 404.500 746.738 C 404.500 747.340, 404.090 748.208, 403.590 748.667 C 403.061 749.151, 402.981 748.976, 403.399 748.250 C 404.534 746.278, 402.977 746.780, 399.326 749.565 C 397.476 750.976, 396.185 752.491, 396.458 752.932 C 396.730 753.372, 395.951 754.580, 394.726 755.616 L 392.500 757.500 394.405 755.250 C 395.453 754.013, 395.969 753, 395.551 753 C 393.149 753, 360 784.101, 360 786.355 C 360 786.968, 365.738 781.852, 372.750 774.985 L 385.500 762.500 373.068 775.197 C 366.231 782.180, 360.346 787.714, 359.990 787.494 C 359.099 786.943, 349.349 797.042, 342.606 805.500 C 336.792 812.792, 335.394 815.670, 339.250 812.405 L 341.500 810.500 339.631 812.710 C 338.603 813.926, 337.309 814.826, 336.756 814.710 C 336.203 814.595, 335.523 815.125, 335.245 815.889 C 334.907 816.821, 335.163 817.017, 336.025 816.485 C 336.873 815.960, 337.063 816.088, 336.585 816.862 C 336.187 817.506, 335.472 817.792, 334.996 817.498 C 332.665 816.057, 317.313 841.880, 311.165 857.585 C 306 870.775, 304.004 880.994, 303.366 897.496 C 302.597 917.390, 304.388 928.888, 309.954 939.788 C 315.012 949.691, 316.669 952.078, 323.026 958.619 C 328.128 963.869, 332.191 966.230, 328.412 961.750 C 326.703 959.724, 326.787 959.741, 329.257 961.924 C 332.148 964.480, 332.851 965.629, 330.750 964.367 C 329.901 963.857, 329.940 964.158, 330.872 965.308 C 332.456 967.261, 334.471 967.613, 333.399 965.750 C 332.981 965.024, 333.061 964.849, 333.590 965.333 C 334.090 965.792, 334.500 966.686, 334.500 967.321 C 334.500 967.956, 337.447 969.976, 341.050 971.810 C 361.240 982.089, 392.178 976.348, 417.478 957.628 C 425.600 951.619, 449 929.321, 449 927.591 C 449 927.074, 447.762 927.741, 446.250 929.072 C 443.543 931.455, 443.545 931.443, 446.403 928.282 C 448 926.516, 449.651 925.284, 450.072 925.545 C 452.030 926.754, 474.533 892.825, 483.330 875.402 C 487.026 868.082, 493.398 850.943, 497.154 838.222 C 502.523 820.040, 504.650 808.591, 506.022 790.500 C 508.216 761.578, 504.824 743.865, 495.140 733.668 C 489.612 727.847, 487.293 727.002, 476.800 726.984 C 471.685 726.976, 465.025 726.413, 462 725.734 C 458.975 725.055, 454.925 724.621, 453 724.768 M 451.768 726.725 C 453.565 726.947, 456.265 726.943, 457.768 726.715 C 459.271 726.486, 457.800 726.304, 454.500 726.310 C 451.200 726.315, 449.971 726.502, 451.768 726.725 M 504.320 787 C 504.320 790.575, 504.502 792.038, 504.723 790.250 C 504.945 788.462, 504.945 785.538, 504.723 783.750 C 504.502 781.962, 504.320 783.425, 504.320 787 M 750.374 793.500 C 750.376 799.550, 750.541 801.896, 750.740 798.713 C 750.939 795.531, 750.937 790.581, 750.736 787.713 C 750.535 784.846, 750.372 787.450, 750.374 793.500 M 573.406 836.153 C 573.125 836.606, 573.707 836.721, 574.698 836.407 C 576.308 835.898, 576.293 836.006, 574.559 837.418 C 572.294 839.264, 570.565 839.513, 571.595 837.845 C 572.041 837.124, 571.869 836.963, 571.138 837.415 C 570.494 837.813, 570.274 838.634, 570.648 839.239 C 571.076 839.932, 570.751 840.119, 569.770 839.742 C 568.809 839.373, 567.311 840.170, 565.856 841.822 L 563.500 844.500 566.250 842.076 C 570.160 838.629, 569.655 840.532, 565.414 845.226 C 559.864 851.370, 555.914 861.096, 555.267 870.213 C 554.607 879.502, 556.040 885.379, 560.190 890.415 C 563.992 895.027, 567.813 896.992, 573.458 897.237 C 577.071 897.395, 578.813 896.812, 582.496 894.216 C 588.249 890.161, 589.590 890.126, 585 894.150 C 583.075 895.838, 582.400 896.757, 583.500 896.192 C 584.600 895.627, 587.075 893.449, 589 891.353 C 590.925 889.257, 591.487 888.390, 590.250 889.426 C 587.452 891.769, 587.359 890.709, 590.034 886.953 C 593.793 881.673, 596.957 873.079, 597.834 865.763 C 599.071 855.451, 598.607 853.051, 593.164 841.611 C 592.931 841.122, 593.249 841.036, 593.870 841.420 C 595.602 842.490, 595.212 841.417, 593.308 839.872 C 592.158 838.940, 591.857 838.901, 592.367 839.750 C 592.780 840.438, 592.641 841, 592.059 841 C 591.477 841, 591 840.562, 591 840.026 C 591 837.405, 574.831 833.846, 573.406 836.153 M 756.500 851 C 760.320 854.850, 763.671 858, 763.946 858 C 764.221 858, 761.320 854.850, 757.500 851 C 753.680 847.150, 750.329 844, 750.054 844 C 749.779 844, 752.680 847.150, 756.500 851 M 389.226 851.004 C 385.195 853.461, 384.340 853.529, 386.128 851.250 C 387.370 849.666, 387.335 849.630, 385.761 850.863 C 384.805 851.613, 384.241 852.581, 384.509 853.014 C 384.777 853.447, 382.784 856.060, 380.082 858.820 C 374.584 864.435, 368.932 875.359, 366.984 884.135 C 365.739 889.743, 366.013 898.765, 367.539 902.414 C 368.164 903.907, 368.027 904.146, 366.920 903.503 C 366.139 903.049, 366.591 903.875, 367.924 905.339 C 369.258 906.802, 370.565 908, 370.829 908 C 371.094 908, 370.495 907.100, 369.500 906 C 367.342 903.615, 368.174 903.413, 371.412 905.535 C 378.290 910.041, 386.185 908.958, 393.768 902.466 C 398.624 898.310, 400.278 897.937, 396.944 901.750 C 395.621 903.263, 396.892 902.267, 399.769 899.538 C 402.646 896.808, 405 894.362, 405 894.101 C 405 893.839, 403.650 894.919, 402 896.500 C 400.350 898.081, 399 898.895, 399 898.310 C 399 897.724, 399.713 896.653, 400.584 895.930 C 409.534 888.502, 414.354 867.774, 409.590 857.203 C 406.101 849.460, 396.534 846.548, 389.226 851.004 M 738.467 860.765 C 737.898 861.169, 736.129 864.650, 734.535 868.500 C 731.520 875.782, 724.185 889.591, 719.661 896.500 C 713.525 905.871, 707.125 914.869, 701.750 921.682 C 695.665 929.394, 694.549 931.539, 698.250 928.405 L 700.500 926.500 698.616 928.726 C 697.580 929.951, 696.410 930.753, 696.016 930.510 C 695.118 929.955, 675.420 949.803, 675.718 950.961 C 675.838 951.427, 675.163 952.414, 674.218 953.154 C 672.668 954.368, 672.634 954.329, 673.872 952.750 C 674.627 951.788, 674.795 951, 674.245 951 C 673.121 951, 670.317 954.072, 670.833 954.737 C 671.017 954.973, 670.832 955.467, 670.423 955.833 C 670.014 956.200, 670.003 955.938, 670.399 955.250 C 670.794 954.563, 670.697 954, 670.181 954 C 669.104 954, 666.333 957.093, 666.833 957.737 C 667.017 957.973, 666.832 958.467, 666.423 958.833 C 666.014 959.200, 666.003 958.938, 666.399 958.250 C 667.491 956.352, 665.582 956.754, 662.687 959.031 C 659.159 961.807, 637.770 972.679, 633.203 974.018 C 612.045 980.222, 602.669 981.329, 584.084 979.817 C 568.557 978.553, 555.603 974.930, 542.679 968.235 C 533.484 963.472, 533.579 963.509, 534.515 965.025 C 535.051 965.892, 534.912 966.064, 534.088 965.554 C 533.416 965.139, 533.118 964.549, 533.425 964.242 C 534.143 963.524, 532.065 961, 530.755 961 C 530.205 961, 530.373 961.788, 531.128 962.750 C 532.376 964.341, 532.339 964.374, 530.726 963.107 C 529.750 962.342, 529.189 961.478, 529.478 961.189 C 530.152 960.514, 527.002 957, 525.723 957 C 525.190 957, 525.373 957.788, 526.128 958.750 C 527.376 960.341, 527.339 960.374, 525.726 959.107 C 524.750 958.342, 524.181 957.485, 524.462 957.204 C 524.743 956.924, 521.693 953.261, 517.685 949.066 C 508.981 939.956, 505.572 935.140, 500.292 924.500 C 496.008 915.866, 493.615 907.980, 492.400 898.500 C 491.673 892.827, 491.594 892.691, 490.947 896 L 490.263 899.500 489.974 896.500 C 489.815 894.850, 489.706 892.938, 489.731 892.250 C 489.842 889.259, 488.205 891.663, 484 900.664 C 478.379 912.697, 478.471 912.445, 480.025 911.485 C 480.873 910.960, 481.063 911.088, 480.585 911.862 C 480.187 912.506, 479.502 912.810, 479.063 912.539 C 478.333 912.088, 469 925.139, 469 926.610 C 469 926.959, 469.788 926.627, 470.750 925.872 C 472.334 924.630, 472.370 924.665, 471.137 926.239 C 470.387 927.195, 469.439 927.771, 469.030 927.519 C 468.280 927.055, 462 934.272, 462 935.596 C 462 935.989, 463.013 935.453, 464.250 934.405 L 466.500 932.500 464.656 934.683 C 463.642 935.883, 462.292 936.696, 461.656 936.490 C 461.020 936.284, 458.025 939.097, 455 942.741 C 451.975 946.385, 445.792 952.514, 441.261 956.361 C 436.729 960.208, 433.239 963.572, 433.505 963.838 C 433.770 964.104, 434.968 963.461, 436.166 962.411 C 437.364 961.360, 438.028 961.042, 437.642 961.703 C 437.255 962.365, 435.491 963.923, 433.720 965.164 C 431.558 966.680, 430.951 966.859, 431.872 965.711 C 432.627 964.770, 432.916 964, 432.514 964 C 431.080 964, 419.092 973.339, 419.558 974.093 C 419.819 974.516, 419.506 975.187, 418.862 975.585 C 418.088 976.063, 417.960 975.873, 418.485 975.025 C 419.017 974.163, 418.821 973.907, 417.889 974.245 C 417.125 974.523, 416.607 975.240, 416.738 975.839 C 416.869 976.438, 416.354 976.689, 415.594 976.398 C 414.835 976.106, 411.032 977.469, 407.145 979.427 C 395.380 985.352, 382.851 988.146, 366 988.604 C 349.559 989.051, 344.052 987.900, 331.735 981.445 C 328.015 979.495, 324.516 978.181, 323.961 978.524 C 323.405 978.868, 323.074 978.719, 323.225 978.195 C 323.546 977.081, 306.502 960.831, 305.775 961.558 C 305.506 961.828, 304.658 961.276, 303.893 960.332 C 302.971 959.197, 302.923 958.870, 303.750 959.367 C 305.680 960.527, 305.334 959.732, 300.489 951.872 C 291.736 937.676, 288.729 925.828, 288.594 905 C 288.542 897.025, 288.846 888.189, 289.269 885.364 C 289.931 880.946, 289.792 880.134, 288.269 879.546 C 286.963 879.042, 285.364 880.124, 282.156 883.682 C 274.778 891.865, 251.909 919.709, 242.974 931.388 C 240.238 934.964, 238.948 940, 240.768 940 C 242.451 940, 253.187 949.924, 259.159 957 C 262.640 961.125, 271.341 971.047, 278.494 979.048 C 292.361 994.559, 302.967 1006.613, 321.127 1027.500 C 327.343 1034.650, 332.670 1040.725, 332.964 1041 C 333.259 1041.275, 335.675 1044.091, 338.334 1047.257 C 340.992 1050.424, 343.519 1052.797, 343.950 1052.531 C 344.380 1052.265, 345.580 1053.049, 346.616 1054.274 L 348.500 1056.500 346.250 1054.595 C 345.013 1053.547, 344 1053.131, 344 1053.671 C 344 1054.948, 348.495 1059.172, 349.154 1058.513 C 349.431 1058.235, 350.748 1059.244, 352.079 1060.754 L 354.500 1063.500 351.750 1061.076 C 350.237 1059.742, 349 1059.096, 349 1059.639 C 349 1060.944, 354.490 1066.176, 355.159 1065.508 C 355.445 1065.222, 356.539 1066.003, 357.589 1067.244 L 359.500 1069.500 357.250 1067.595 C 352.938 1063.944, 355.055 1067.333, 363.052 1076.884 C 367.481 1082.173, 372.604 1088.300, 374.436 1090.500 C 385.809 1104.154, 390.221 1108.981, 390.930 1108.543 C 391.372 1108.270, 392.580 1109.049, 393.616 1110.274 L 395.500 1112.500 393.250 1110.595 C 388.919 1106.928, 391.083 1110.185, 401.250 1122.639 C 411.617 1135.337, 432.921 1162.203, 440.777 1172.486 C 443.130 1175.565, 445.441 1177.845, 445.914 1177.553 C 446.387 1177.261, 447.387 1177.805, 448.137 1178.761 C 449.370 1180.335, 449.334 1180.370, 447.750 1179.128 C 443.122 1175.498, 448.210 1182.682, 463.675 1201.614 C 465.420 1203.751, 471.779 1211.575, 477.805 1219 C 483.830 1226.425, 489.211 1232.405, 489.761 1232.290 C 490.312 1232.174, 491.603 1233.074, 492.631 1234.290 L 494.500 1236.500 492.250 1234.595 C 491.012 1233.547, 490 1233.031, 490 1233.448 C 490 1234.551, 502.419 1249.541, 508.891 1256.250 C 514.703 1262.275, 518.519 1264.374, 513.437 1258.750 L 510.500 1255.500 513.714 1258.403 C 515.482 1260, 516.691 1261.690, 516.401 1262.160 C 516.111 1262.630, 516.562 1263.278, 517.403 1263.601 C 519.383 1264.361, 521.963 1261.451, 532.782 1246.257 C 537.577 1239.523, 542.753 1232.323, 544.284 1230.257 C 548.145 1225.048, 552 1219.154, 552 1218.461 C 552 1218.142, 551.480 1218.203, 550.845 1218.595 C 550.124 1219.041, 549.963 1218.869, 550.415 1218.138 C 550.813 1217.494, 551.521 1217.204, 551.989 1217.493 C 553.676 1218.536, 577.582 1182.751, 576.437 1180.898 C 575.966 1180.136, 576.112 1179.951, 576.834 1180.397 C 577.551 1180.841, 580.075 1177.823, 583.605 1172.302 C 586.700 1167.461, 590.080 1162.281, 591.116 1160.790 C 593.220 1157.765, 593.613 1155.503, 591.845 1156.595 C 591.124 1157.041, 590.963 1156.869, 591.415 1156.138 C 591.813 1155.494, 592.499 1155.191, 592.941 1155.463 C 593.382 1155.736, 595.376 1153.501, 597.372 1150.495 C 601.252 1144.651, 601.732 1143.460, 599.750 1144.601 C 599.024 1145.019, 598.849 1144.939, 599.333 1144.410 C 599.792 1143.910, 600.520 1143.500, 600.951 1143.500 C 601.927 1143.500, 607.413 1136.288, 611.982 1129 C 613.878 1125.975, 621.408 1114.886, 628.715 1104.358 C 636.022 1093.830, 642 1084.916, 642 1084.549 C 642 1084.182, 641.480 1084.203, 640.845 1084.595 C 640.124 1085.041, 639.963 1084.869, 640.415 1084.138 C 640.813 1083.494, 641.516 1083.201, 641.977 1083.486 C 642.707 1083.937, 686.816 1026.398, 687.913 1023.566 C 688.140 1022.980, 687.465 1023.175, 686.413 1024 C 684.647 1025.385, 684.605 1025.366, 685.863 1023.761 C 686.613 1022.805, 687.574 1022.237, 687.999 1022.499 C 688.776 1022.979, 708 999.862, 708 998.448 C 708 998.031, 706.987 998.547, 705.750 999.595 L 703.500 1001.500 705.384 999.274 C 706.420 998.049, 707.637 997.276, 708.090 997.555 C 708.783 997.984, 719.498 985.366, 726.500 975.877 C 727.600 974.386, 734.013 966.373, 740.750 958.070 C 752.889 943.111, 755.097 939.915, 750.750 943.595 L 748.500 945.500 750.384 943.274 C 751.420 942.049, 752.618 941.264, 753.046 941.528 C 753.894 942.052, 781.947 910.142, 783.377 907.026 C 784.280 905.060, 777.515 897.267, 751.063 869.800 C 741.804 860.185, 740.549 859.285, 738.467 860.765 M 508.355 883.500 C 508.352 888.450, 508.521 890.601, 508.731 888.280 C 508.940 885.959, 508.943 881.909, 508.736 879.280 C 508.530 876.651, 508.358 878.550, 508.355 883.500 M 773 896.500 C 775.987 899.525, 778.657 902, 778.932 902 C 779.207 902, 776.987 899.525, 774 896.500 C 771.013 893.475, 768.343 891, 768.068 891 C 767.793 891, 770.013 893.475, 773 896.500 M 286.389 904.500 C 286.390 911.650, 286.550 914.444, 286.742 910.708 C 286.935 906.973, 286.934 901.123, 286.739 897.708 C 286.545 894.294, 286.387 897.350, 286.389 904.500 M 673.490 929.010 C 671.915 930.655, 671.082 932, 671.639 932 C 672.925 932, 677.508 927.174, 676.848 926.514 C 676.576 926.243, 675.065 927.366, 673.490 929.010 M 683.971 943.750 L 677.500 950.500 684.250 944.029 C 687.962 940.470, 691 937.432, 691 937.279 C 691 936.543, 689.982 937.480, 683.971 943.750 M 538.090 1003.873 C 535.530 1004.590, 533.876 1006.609, 529.569 1014.274 C 528.094 1016.900, 526.494 1018.805, 526.013 1018.508 C 525.532 1018.211, 524.813 1018.494, 524.415 1019.138 C 523.963 1019.869, 524.124 1020.041, 524.845 1019.595 C 527.107 1018.198, 525.930 1020.745, 521.027 1027.863 C 513.063 1039.423, 506.923 1047.071, 506.043 1046.527 C 505.594 1046.249, 504.613 1046.805, 503.863 1047.761 C 502.630 1049.335, 502.666 1049.370, 504.250 1048.128 C 507.353 1045.694, 506.119 1048.042, 501.379 1053.591 C 498.837 1056.566, 496.278 1059, 495.691 1059 C 495.105 1059, 495.940 1057.537, 497.547 1055.750 C 499.154 1053.963, 497.663 1055.186, 494.234 1058.469 C 490.805 1061.751, 488 1064.634, 488 1064.874 C 488 1065.114, 488.900 1064.495, 490 1063.500 C 491.100 1062.505, 492 1062.187, 492 1062.794 C 492 1064.344, 480.327 1072.502, 474.595 1074.959 C 466.452 1078.450, 462.733 1078.596, 456.766 1075.658 C 450.873 1072.757, 446.373 1066.979, 443.401 1058.500 C 441.918 1054.268, 441.681 1050.318, 441.854 1032.780 C 442.049 1013.145, 441.953 1011.953, 440.030 1010.030 C 438.789 1008.789, 436.683 1008, 434.614 1008 C 430.171 1008, 428.734 1011.046, 426.568 1025.060 C 422.526 1051.218, 425.544 1066.035, 437.958 1080.961 C 440.456 1083.965, 442.402 1086.734, 442.282 1087.115 C 442.162 1087.496, 442.837 1088.414, 443.782 1089.154 C 445.332 1090.368, 445.366 1090.329, 444.128 1088.750 C 442.244 1086.348, 443.257 1086.556, 447.517 1089.447 C 451.868 1092.400, 460.379 1095, 465.694 1095 C 478.038 1095, 491.974 1087.438, 508.436 1071.807 C 514.653 1065.903, 519.959 1061.293, 520.227 1061.561 C 520.496 1061.829, 521.342 1061.250, 522.107 1060.274 C 523.374 1058.661, 523.341 1058.624, 521.750 1059.872 C 519.071 1061.974, 519.661 1060.215, 523.088 1055.889 C 524.786 1053.745, 526.535 1052.213, 526.974 1052.484 C 527.414 1052.756, 528.387 1052.195, 529.137 1051.239 C 530.370 1049.665, 530.334 1049.630, 528.750 1050.872 C 525.614 1053.331, 526.871 1050.933, 535.012 1038.921 C 543.278 1026.725, 552 1010.456, 552 1007.233 C 552 1006.225, 551.460 1004.860, 550.800 1004.200 C 549.530 1002.930, 542.140 1002.740, 538.090 1003.873 M 443.310 1029.500 C 443.315 1032.800, 443.502 1034.029, 443.725 1032.232 C 443.947 1030.435, 443.943 1027.735, 443.715 1026.232 C 443.486 1024.729, 443.304 1026.200, 443.310 1029.500" stroke="none" fill="#1b1a1a" fill-rule="evenodd"/></svg>